<svg width="143" height="60" viewBox="0 0 143 60" fill="none" xmlns="http://www.w3.org/2000/svg">
<path fill-rule="evenodd" clip-rule="evenodd" d="M18 40.1259V60H124.764C128.288 60 131.544 58.2687 133.307 55.4578L143 40H19.6895C19.1179 40 18.5532 40.0428 18 40.1259Z" fill="#FF1D50"/>
<path d="M31.326 54H29.786L26.299 48.731V54H24.759V46.311H26.299L29.786 51.591V46.311H31.326V54ZM34.6079 47.565V49.49H37.1929V50.711H34.6079V52.746H37.5229V54H33.0679V46.311H37.5229V47.565H34.6079ZM49.4054 46.322L47.2604 54H45.4454L44.0044 48.533L42.4974 54L40.6934 54.011L38.6254 46.322H40.2754L41.6284 52.284L43.1904 46.322H44.9064L46.3804 52.251L47.7444 46.322H49.4054ZM53.2819 54.077C52.7466 54.077 52.2626 53.9853 51.8299 53.802C51.4046 53.6187 51.0672 53.3547 50.8179 53.01C50.5686 52.6653 50.4402 52.2583 50.4329 51.789H52.0829C52.1049 52.1043 52.2149 52.3537 52.4129 52.537C52.6182 52.7203 52.8969 52.812 53.2489 52.812C53.6082 52.812 53.8906 52.7277 54.0959 52.559C54.3012 52.383 54.4039 52.1557 54.4039 51.877C54.4039 51.6497 54.3342 51.4627 54.1949 51.316C54.0556 51.1693 53.8796 51.0557 53.6669 50.975C53.4616 50.887 53.1756 50.7917 52.8089 50.689C52.3102 50.5423 51.9032 50.3993 51.5879 50.26C51.2799 50.1133 51.0122 49.897 50.7849 49.611C50.5649 49.3177 50.4549 48.929 50.4549 48.445C50.4549 47.9903 50.5686 47.5943 50.7959 47.257C51.0232 46.9197 51.3422 46.663 51.7529 46.487C52.1636 46.3037 52.6329 46.212 53.1609 46.212C53.9529 46.212 54.5946 46.4063 55.0859 46.795C55.5846 47.1763 55.8596 47.7117 55.9109 48.401H54.2169C54.2022 48.137 54.0886 47.9207 53.8759 47.752C53.6706 47.576 53.3956 47.488 53.0509 47.488C52.7502 47.488 52.5082 47.565 52.3249 47.719C52.1489 47.873 52.0609 48.0967 52.0609 48.39C52.0609 48.5953 52.1269 48.7677 52.2589 48.907C52.3982 49.039 52.5669 49.149 52.7649 49.237C52.9702 49.3177 53.2562 49.413 53.6229 49.523C54.1216 49.6697 54.5286 49.8163 54.8439 49.963C55.1592 50.1097 55.4306 50.3297 55.6579 50.623C55.8852 50.9163 55.9989 51.3013 55.9989 51.778C55.9989 52.1887 55.8926 52.57 55.6799 52.922C55.4672 53.274 55.1556 53.5563 54.7449 53.769C54.3342 53.9743 53.8466 54.077 53.2819 54.077ZM66.3021 54L65.4661 53.175C64.7548 53.813 63.8858 54.132 62.8591 54.132C62.2945 54.132 61.7958 54.0367 61.3631 53.846C60.9378 53.648 60.6078 53.373 60.3731 53.021C60.1385 52.6617 60.0211 52.2473 60.0211 51.778C60.0211 51.272 60.1641 50.8173 60.4501 50.414C60.7361 50.0107 61.1578 49.6843 61.7151 49.435C61.5171 49.193 61.3741 48.962 61.2861 48.742C61.1981 48.5147 61.1541 48.2727 61.1541 48.016C61.1541 47.664 61.2458 47.3487 61.4291 47.07C61.6125 46.784 61.8728 46.5603 62.2101 46.399C62.5548 46.2377 62.9545 46.157 63.4091 46.157C63.8711 46.157 64.2671 46.245 64.5971 46.421C64.9271 46.597 65.1728 46.8317 65.3341 47.125C65.4955 47.4183 65.5651 47.7447 65.5431 48.104H64.0471C64.0545 47.862 63.9958 47.6787 63.8711 47.554C63.7465 47.422 63.5778 47.356 63.3651 47.356C63.1598 47.356 62.9875 47.4183 62.8481 47.543C62.7161 47.6603 62.6501 47.8143 62.6501 48.005C62.6501 48.1883 62.7051 48.3717 62.8151 48.555C62.9251 48.731 63.1048 48.951 63.3541 49.215L65.2901 51.129C65.3048 51.1143 65.3158 51.0997 65.3231 51.085C65.3305 51.0703 65.3378 51.0557 65.3451 51.041L65.9721 49.996H67.5781L66.8081 51.349C66.6615 51.635 66.5038 51.9063 66.3351 52.163L68.1941 54H66.3021ZM62.9031 52.856C63.5045 52.856 64.0361 52.6433 64.4981 52.218L62.6061 50.348C61.8948 50.6633 61.5391 51.1107 61.5391 51.69C61.5391 52.02 61.6638 52.2987 61.9131 52.526C62.1625 52.746 62.4925 52.856 62.9031 52.856ZM80.3888 46.322V54H78.8488V49.006L76.7918 54H75.6258L73.5578 49.006V54H72.0178V46.322H73.7668L76.2088 52.031L78.6508 46.322H80.3888ZM86.8393 52.537H83.7813L83.2753 54H81.6583L84.4193 46.311H86.2123L88.9733 54H87.3453L86.8393 52.537ZM86.4213 51.305L85.3103 48.093L84.1993 51.305H86.4213ZM95.5713 48.632C95.3953 48.3093 95.1533 48.0637 94.8453 47.895C94.5373 47.7263 94.178 47.642 93.7673 47.642C93.3127 47.642 92.9093 47.7447 92.5573 47.95C92.2053 48.1553 91.9303 48.4487 91.7323 48.83C91.5343 49.2113 91.4353 49.6513 91.4353 50.15C91.4353 50.6633 91.5343 51.1107 91.7323 51.492C91.9377 51.8733 92.22 52.1667 92.5793 52.372C92.9387 52.5773 93.3567 52.68 93.8333 52.68C94.42 52.68 94.9003 52.526 95.2743 52.218C95.6483 51.9027 95.894 51.4663 96.0113 50.909H93.3713V49.732H97.5293V51.074C97.4267 51.6093 97.2067 52.1043 96.8693 52.559C96.532 53.0137 96.0957 53.3803 95.5603 53.659C95.0323 53.9303 94.4383 54.066 93.7783 54.066C93.0377 54.066 92.3667 53.901 91.7653 53.571C91.1713 53.2337 90.702 52.768 90.3573 52.174C90.02 51.58 89.8513 50.9053 89.8513 50.15C89.8513 49.3947 90.02 48.72 90.3573 48.126C90.702 47.5247 91.1713 47.059 91.7653 46.729C92.3667 46.3917 93.034 46.223 93.7673 46.223C94.6327 46.223 95.3843 46.4357 96.0223 46.861C96.6603 47.279 97.1003 47.8693 97.3423 48.632H95.5713ZM103.597 52.537H100.539L100.033 54H98.4157L101.177 46.311H102.97L105.731 54H104.103L103.597 52.537ZM103.179 51.305L102.068 48.093L100.957 51.305H103.179ZM108.556 52.702H112.01V54H106.774V52.812L110.206 47.62H106.774V46.322H112.01V47.51L108.556 52.702ZM115.081 46.322V54H113.541V46.322H115.081ZM123.389 54H121.849L118.362 48.731V54H116.822V46.311H118.362L121.849 51.591V46.311H123.389V54ZM126.671 47.565V49.49H129.256V50.711H126.671V52.746H129.586V54H125.131V46.311H129.586V47.565H126.671Z" fill="white"/>
<mask id="mask0_206_7254" style="mask-type:alpha" maskUnits="userSpaceOnUse" x="0" y="0" width="42" height="40">
<rect width="42" height="40" fill="#D9D9D9"/>
</mask>
<g mask="url(#mask0_206_7254)">
<path d="M1.91715 5.92041C-0.6325 14.4407 7.64199 23.1545 18.3798 29.6575C21.3265 31.4429 24.4585 33.0603 27.6042 34.4619C34.199 37.4017 40.8506 39.3912 45.9668 39.9728C40.5168 40.2219 33.9968 38.7487 27.6042 36.2183V39.5783H18.3798V31.7807C5.35668 24.3444 -4.25953 13.4369 1.91715 5.92041Z" fill="#080809"/>
<path d="M50.2603 38.104C43.4317 38.104 35.2298 36.0942 27.6041 32.8005C24.3773 31.4075 21.2536 29.7837 18.3796 27.9845C11.1909 23.4838 5.57134 17.8873 3.83789 12.0557C3.74521 11.7499 3.66517 11.4431 3.59568 11.1352C3.46298 10.5312 3.36083 9.92185 3.31028 9.31676C3.10176 6.82374 3.7568 4.40556 6.67083 2.72929C11.4921 -0.707692 21.6991 -0.617885 27.9474 1.4443C16.3976 0.240549 7.42697 2.15736 8.05991 9.31676C8.12416 10.0459 8.28846 10.8305 8.56014 11.6708C9.12991 13.4358 9.73442 15.064 10.8876 16.505C11.0708 16.7338 11.2551 16.9615 11.4437 17.1871C13.5194 19.6972 15.831 22.0245 18.3796 24.153V17.1871H13.1097C12.8728 16.9145 12.6411 16.6387 12.4115 16.3618C12.2072 16.118 12.0145 15.8775 11.8681 15.6958C10.8171 14.383 10.2715 12.8532 9.76075 11.271C9.53747 10.5814 9.39321 9.92398 9.32896 9.31676H35.6248L41.595 17.1871H27.6041V30.4187C34.0851 33.97 41.6308 36.5742 50.2603 38.104Z" fill="#FF1D50"/>
</g>
<path d="M48.48 18.172L48.876 18.244V37H43.494V13.24H50.838L60.468 31.96L60.072 32.032V13.24H65.454V37H58.074L48.48 18.172ZM69.5096 13.24H84.6836V17.956H74.8736V22.798H84.5936V27.37H74.8736V32.284H84.6836V37H69.5096V13.24ZM113.076 37H106.614L102.582 20.422H103.554L99.5221 37H93.0241L87.6061 13.24H93.7801L96.6421 29.908H96.5701L101.034 13.24H105.084L109.566 29.908H109.494L112.356 13.24H118.53L113.076 37ZM130.34 12.808C131.816 12.808 133.106 12.97 134.21 13.294C135.314 13.618 136.202 13.96 136.874 14.32C137.546 14.68 137.954 14.92 138.098 15.04L135.506 19.378C135.314 19.234 134.984 19.024 134.516 18.748C134.06 18.472 133.514 18.226 132.878 18.01C132.254 17.794 131.6 17.686 130.916 17.686C129.992 17.686 129.242 17.854 128.666 18.19C128.102 18.514 127.82 19 127.82 19.648C127.82 20.092 127.97 20.494 128.27 20.854C128.582 21.202 129.05 21.538 129.674 21.862C130.31 22.174 131.114 22.516 132.086 22.888C132.974 23.212 133.808 23.596 134.588 24.04C135.368 24.484 136.052 25.012 136.64 25.624C137.24 26.224 137.714 26.92 138.062 27.712C138.41 28.504 138.584 29.404 138.584 30.412C138.584 31.612 138.338 32.656 137.846 33.544C137.354 34.42 136.682 35.146 135.83 35.722C134.99 36.298 134.03 36.724 132.95 37C131.882 37.288 130.772 37.432 129.62 37.432C127.988 37.432 126.524 37.246 125.228 36.874C123.944 36.502 122.906 36.1 122.114 35.668C121.322 35.236 120.848 34.948 120.692 34.804L123.374 30.286C123.518 30.394 123.794 30.568 124.202 30.808C124.622 31.048 125.132 31.3 125.732 31.564C126.332 31.816 126.968 32.032 127.64 32.212C128.324 32.392 128.996 32.482 129.656 32.482C130.76 32.482 131.588 32.272 132.14 31.852C132.692 31.42 132.968 30.856 132.968 30.16C132.968 29.644 132.794 29.182 132.446 28.774C132.098 28.366 131.576 27.982 130.88 27.622C130.184 27.25 129.314 26.86 128.27 26.452C127.226 26.032 126.248 25.522 125.336 24.922C124.436 24.322 123.704 23.572 123.14 22.672C122.576 21.772 122.294 20.656 122.294 19.324C122.294 17.992 122.666 16.84 123.41 15.868C124.166 14.884 125.156 14.128 126.38 13.6C127.616 13.072 128.936 12.808 130.34 12.808Z" fill="#080809"/>
</svg>
