<svg width="143" height="60" viewBox="0 0 143 60" fill="none" xmlns="http://www.w3.org/2000/svg">
<path fill-rule="evenodd" clip-rule="evenodd" d="M18 40.1259V60H124.764C128.288 60 131.544 58.2687 133.307 55.4578L143 40H19.6895C19.1179 40 18.5532 40.0428 18 40.1259Z" fill="#FF1D50"/>
<path d="M31.106 54H29.852L26.079 48.291V54H24.825V46.344H26.079L29.852 52.042V46.344H31.106V54ZM34.2267 47.367V49.611H36.8667V50.634H34.2267V52.977H37.1967V54H32.9727V46.344H37.1967V47.367H34.2267ZM48.9163 46.355L46.6503 54H45.2313L43.6253 48.214L41.9203 54L40.5123 54.011L38.3453 46.355H39.6763L41.2603 52.581L42.9763 46.355H44.3843L45.9793 52.548L47.5743 46.355H48.9163ZM52.6895 54.077C52.1762 54.077 51.7142 53.989 51.3035 53.813C50.8929 53.6297 50.5702 53.373 50.3355 53.043C50.1009 52.713 49.9835 52.328 49.9835 51.888H51.3255C51.3549 52.218 51.4832 52.4893 51.7105 52.702C51.9452 52.9147 52.2715 53.021 52.6895 53.021C53.1222 53.021 53.4595 52.9183 53.7015 52.713C53.9435 52.5003 54.0645 52.229 54.0645 51.899C54.0645 51.6423 53.9875 51.4333 53.8335 51.272C53.6869 51.1107 53.4999 50.986 53.2725 50.898C53.0525 50.81 52.7445 50.7147 52.3485 50.612C51.8499 50.48 51.4429 50.348 51.1275 50.216C50.8195 50.0767 50.5555 49.864 50.3355 49.578C50.1155 49.292 50.0055 48.9107 50.0055 48.434C50.0055 47.994 50.1155 47.609 50.3355 47.279C50.5555 46.949 50.8635 46.696 51.2595 46.52C51.6555 46.344 52.1139 46.256 52.6345 46.256C53.3752 46.256 53.9802 46.443 54.4495 46.817C54.9262 47.1837 55.1902 47.6897 55.2415 48.335H53.8555C53.8335 48.0563 53.7015 47.818 53.4595 47.62C53.2175 47.422 52.8985 47.323 52.5025 47.323C52.1432 47.323 51.8499 47.4147 51.6225 47.598C51.3952 47.7813 51.2815 48.0453 51.2815 48.39C51.2815 48.6247 51.3512 48.819 51.4905 48.973C51.6372 49.1197 51.8205 49.237 52.0405 49.325C52.2605 49.413 52.5612 49.5083 52.9425 49.611C53.4485 49.7503 53.8592 49.8897 54.1745 50.029C54.4972 50.1683 54.7685 50.3847 54.9885 50.678C55.2159 50.964 55.3295 51.349 55.3295 51.833C55.3295 52.2217 55.2232 52.5883 55.0105 52.933C54.8052 53.2777 54.5009 53.5563 54.0975 53.769C53.7015 53.9743 53.2322 54.077 52.6895 54.077ZM66.0136 54L65.0676 53.054C64.701 53.4207 64.3013 53.6957 63.8686 53.879C63.436 54.055 62.952 54.143 62.4166 54.143C61.874 54.143 61.3936 54.0477 60.9756 53.857C60.5576 53.6663 60.235 53.395 60.0076 53.043C59.7803 52.6837 59.6666 52.2693 59.6666 51.8C59.6666 51.272 59.817 50.8027 60.1176 50.392C60.4183 49.974 60.8656 49.644 61.4596 49.402C61.247 49.1453 61.0966 48.907 61.0086 48.687C60.9206 48.4597 60.8766 48.2103 60.8766 47.939C60.8766 47.6017 60.961 47.301 61.1296 47.037C61.3056 46.773 61.555 46.564 61.8776 46.41C62.2003 46.256 62.5743 46.179 62.9996 46.179C63.4323 46.179 63.799 46.2633 64.0996 46.432C64.4076 46.5933 64.635 46.817 64.7816 47.103C64.9356 47.389 64.998 47.708 64.9686 48.06H63.7146C63.722 47.7887 63.656 47.5797 63.5166 47.433C63.3773 47.279 63.1866 47.202 62.9446 47.202C62.7026 47.202 62.5046 47.2753 62.3506 47.422C62.204 47.5613 62.1306 47.7337 62.1306 47.939C62.1306 48.137 62.1856 48.335 62.2956 48.533C62.413 48.7237 62.6146 48.973 62.9006 49.281L64.9246 51.294L65.7056 50.007H67.0586L66.0686 51.701L65.7936 52.152L67.6526 54H66.0136ZM62.4166 53.076C63.106 53.076 63.7146 52.7937 64.2426 52.229L62.2186 50.194C61.3533 50.5387 60.9206 51.0593 60.9206 51.756C60.9206 52.13 61.06 52.4453 61.3386 52.702C61.6173 52.9513 61.9766 53.076 62.4166 53.076ZM79.8242 46.355V54H78.5702V48.764L76.2382 54H75.3692L73.0262 48.764V54H71.7722V46.355H73.1252L75.8092 52.35L78.4822 46.355H79.8242ZM86.3014 52.438H83.1004L82.5504 54H81.2414L83.9804 46.344H85.4324L88.1714 54H86.8514L86.3014 52.438ZM85.9494 51.415L84.7064 47.862L83.4524 51.415H85.9494ZM95.1153 48.555C94.9173 48.1737 94.6423 47.8877 94.2903 47.697C93.9383 47.499 93.5313 47.4 93.0693 47.4C92.5633 47.4 92.1123 47.5137 91.7163 47.741C91.3203 47.9683 91.0087 48.291 90.7813 48.709C90.5613 49.127 90.4513 49.611 90.4513 50.161C90.4513 50.711 90.5613 51.1987 90.7813 51.624C91.0087 52.042 91.3203 52.3647 91.7163 52.592C92.1123 52.8193 92.5633 52.933 93.0693 52.933C93.7513 52.933 94.305 52.7423 94.7303 52.361C95.1557 51.9797 95.416 51.4627 95.5113 50.81H92.6403V49.809H96.8533V50.788C96.7727 51.382 96.56 51.9283 96.2153 52.427C95.878 52.9257 95.4343 53.3253 94.8843 53.626C94.3417 53.9193 93.7367 54.066 93.0693 54.066C92.3507 54.066 91.6943 53.901 91.1003 53.571C90.5063 53.2337 90.0333 52.768 89.6813 52.174C89.3367 51.58 89.1643 50.909 89.1643 50.161C89.1643 49.413 89.3367 48.742 89.6813 48.148C90.0333 47.554 90.5063 47.092 91.1003 46.762C91.7017 46.4247 92.358 46.256 93.0693 46.256C93.8833 46.256 94.6057 46.4577 95.2363 46.861C95.8743 47.257 96.3363 47.8217 96.6223 48.555H95.1153ZM102.919 52.438H99.7182L99.1682 54H97.8592L100.598 46.344H102.05L104.789 54H103.469L102.919 52.438ZM102.567 51.415L101.324 47.862L100.07 51.415H102.567ZM107.41 52.911H110.963V54H105.925V53.021L109.467 47.444H105.925V46.355H110.963V47.334L107.41 52.911ZM113.808 46.355V54H112.554V46.355H113.808ZM121.955 54H120.701L116.928 48.291V54H115.674V46.344H116.928L120.701 52.042V46.344H121.955V54ZM125.076 47.367V49.611H127.716V50.634H125.076V52.977H128.046V54H123.822V46.344H128.046V47.367H125.076Z" fill="white"/>
<mask id="mask0_468_4095" style="mask-type:alpha" maskUnits="userSpaceOnUse" x="0" y="0" width="43" height="40">
<rect width="42.2222" height="40" fill="#D9D9D9"/>
</mask>
<g mask="url(#mask0_468_4095)">
<path d="M1.92725 5.92041C-0.635895 14.4407 7.68237 23.1545 18.477 29.6575C21.4393 31.4429 24.5879 33.0603 27.7503 34.4619C34.3799 37.4017 41.0667 39.3912 46.21 39.9728C40.7311 40.2219 34.1766 38.7487 27.7503 36.2183V39.5783H18.477V31.7807C5.38498 24.3444 -4.28212 13.4369 1.92725 5.92041Z" fill="white"/>
<path d="M50.5264 38.104C43.6617 38.104 35.4164 36.0942 27.7503 32.8005C24.5064 31.4075 21.3663 29.7837 18.477 27.9845C11.2503 23.4838 5.60101 17.8873 3.85839 12.0557C3.76522 11.7499 3.68475 11.4431 3.61489 11.1352C3.48149 10.5312 3.3788 9.92185 3.32798 9.31676C3.11836 6.82374 3.77687 4.40556 6.70631 2.72929C11.5531 -0.707692 21.8141 -0.617885 28.0954 1.4443C16.4846 0.240549 7.46645 2.15736 8.10274 9.31676C8.16733 10.0459 8.3325 10.8305 8.60562 11.6708C9.17841 13.4358 9.78611 15.064 10.9454 16.505C11.1296 16.7338 11.3149 16.9615 11.5044 17.1871C13.5911 19.6972 15.915 22.0245 18.4771 24.153V17.1871H13.1793C12.9411 16.9145 12.7081 16.6387 12.4774 16.3618C12.272 16.118 12.0782 15.8775 11.9311 15.6958C10.8745 14.383 10.326 12.8532 9.81258 11.271C9.58812 10.5814 9.4431 9.92398 9.3785 9.31676H35.8134L41.8153 17.1871H27.7503V30.4187C34.2656 33.97 41.8513 36.5742 50.5264 38.104Z" fill="#FF1D50"/>
</g>
<path d="M50.48 19.172L50.876 19.244V38H45.494V14.24H52.838L62.468 32.96L62.072 33.032V14.24H67.454V38H60.074L50.48 19.172ZM71.5096 14.24H86.6836V18.956H76.8736V23.798H86.5936V28.37H76.8736V33.284H86.6836V38H71.5096V14.24ZM115.076 38H108.614L104.582 21.422H105.554L101.522 38H95.0241L89.6061 14.24H95.7801L98.6421 30.908H98.5701L103.034 14.24H107.084L111.566 30.908H111.494L114.356 14.24H120.53L115.076 38ZM132.34 13.808C133.816 13.808 135.106 13.97 136.21 14.294C137.314 14.618 138.202 14.96 138.874 15.32C139.546 15.68 139.954 15.92 140.098 16.04L137.506 20.378C137.314 20.234 136.984 20.024 136.516 19.748C136.06 19.472 135.514 19.226 134.878 19.01C134.254 18.794 133.6 18.686 132.916 18.686C131.992 18.686 131.242 18.854 130.666 19.19C130.102 19.514 129.82 20 129.82 20.648C129.82 21.092 129.97 21.494 130.27 21.854C130.582 22.202 131.05 22.538 131.674 22.862C132.31 23.174 133.114 23.516 134.086 23.888C134.974 24.212 135.808 24.596 136.588 25.04C137.368 25.484 138.052 26.012 138.64 26.624C139.24 27.224 139.714 27.92 140.062 28.712C140.41 29.504 140.584 30.404 140.584 31.412C140.584 32.612 140.338 33.656 139.846 34.544C139.354 35.42 138.682 36.146 137.83 36.722C136.99 37.298 136.03 37.724 134.95 38C133.882 38.288 132.772 38.432 131.62 38.432C129.988 38.432 128.524 38.246 127.228 37.874C125.944 37.502 124.906 37.1 124.114 36.668C123.322 36.236 122.848 35.948 122.692 35.804L125.374 31.286C125.518 31.394 125.794 31.568 126.202 31.808C126.622 32.048 127.132 32.3 127.732 32.564C128.332 32.816 128.968 33.032 129.64 33.212C130.324 33.392 130.996 33.482 131.656 33.482C132.76 33.482 133.588 33.272 134.14 32.852C134.692 32.42 134.968 31.856 134.968 31.16C134.968 30.644 134.794 30.182 134.446 29.774C134.098 29.366 133.576 28.982 132.88 28.622C132.184 28.25 131.314 27.86 130.27 27.452C129.226 27.032 128.248 26.522 127.336 25.922C126.436 25.322 125.704 24.572 125.14 23.672C124.576 22.772 124.294 21.656 124.294 20.324C124.294 18.992 124.666 17.84 125.41 16.868C126.166 15.884 127.156 15.128 128.38 14.6C129.616 14.072 130.936 13.808 132.34 13.808Z" fill="white"/>
</svg>
