<svg width="142" height="36" viewBox="0 0 142 36" fill="none" xmlns="http://www.w3.org/2000/svg">
<mask id="mask0_354_3994" style="mask-type:alpha" maskUnits="userSpaceOnUse" x="0" y="0" width="38" height="36">
<rect width="38" height="36" fill="#D9D9D9"/>
</mask>
<g mask="url(#mask0_354_3994)">
<path d="M1.73442 5.32837C-0.572407 12.9966 6.91404 20.8391 16.6292 26.6918C19.2952 28.2986 22.129 29.7543 24.9751 31.0157C30.9418 33.6616 36.96 35.4521 41.5889 35.9755C36.6579 36.1997 30.7589 34.8739 24.9751 32.5965V35.6205H16.6292V28.6026C4.84638 21.9099 -3.854 12.0932 1.73442 5.32837Z" fill="#080809"/>
<path d="M45.4736 34.2936C39.2954 34.2936 31.8747 32.4848 24.9752 29.5205C22.0557 28.2668 19.2295 26.8053 16.6292 25.186C10.1252 21.1354 5.04081 16.0986 3.47245 10.8501C3.3886 10.5749 3.31617 10.2988 3.2533 10.0217C3.13324 9.47809 3.04082 8.92966 2.99508 8.38509C2.80642 6.14137 3.39908 3.965 6.03558 2.45636C10.3977 -0.636923 19.6326 -0.556097 25.2858 1.29987C14.836 0.216494 6.71971 1.94162 7.29236 8.38509C7.35049 9.04127 7.49915 9.74748 7.74496 10.5037C8.26046 12.0922 8.8074 13.5576 9.85075 14.8545C10.0165 15.0604 10.1833 15.2654 10.3539 15.4684C12.2319 17.7275 14.3234 19.8221 16.6293 21.7377V15.4684H11.8612C11.6469 15.223 11.4372 14.9748 11.2295 14.7256C11.0447 14.5062 10.8703 14.2898 10.7379 14.1262C9.78693 12.9447 9.29333 11.5678 8.83122 10.1439C8.62921 9.5233 8.49868 8.93158 8.44055 8.38509H32.232L37.6337 15.4684H24.9752V27.3768C30.839 30.573 37.666 32.9168 45.4736 34.2936Z" fill="#FF1D50"/>
</g>
<path d="M49.48 15.172L49.876 15.244V34H44.494V10.24H51.838L61.468 28.96L61.072 29.032V10.24H66.454V34H59.074L49.48 15.172ZM70.5096 10.24H85.6836V14.956H75.8736V19.798H85.5936V24.37H75.8736V29.284H85.6836V34H70.5096V10.24ZM114.076 34H107.614L103.582 17.422H104.554L100.522 34H94.0241L88.6061 10.24H94.7801L97.6421 26.908H97.5701L102.034 10.24H106.084L110.566 26.908H110.494L113.356 10.24H119.53L114.076 34ZM131.34 9.808C132.816 9.808 134.106 9.97 135.21 10.294C136.314 10.618 137.202 10.96 137.874 11.32C138.546 11.68 138.954 11.92 139.098 12.04L136.506 16.378C136.314 16.234 135.984 16.024 135.516 15.748C135.06 15.472 134.514 15.226 133.878 15.01C133.254 14.794 132.6 14.686 131.916 14.686C130.992 14.686 130.242 14.854 129.666 15.19C129.102 15.514 128.82 16 128.82 16.648C128.82 17.092 128.97 17.494 129.27 17.854C129.582 18.202 130.05 18.538 130.674 18.862C131.31 19.174 132.114 19.516 133.086 19.888C133.974 20.212 134.808 20.596 135.588 21.04C136.368 21.484 137.052 22.012 137.64 22.624C138.24 23.224 138.714 23.92 139.062 24.712C139.41 25.504 139.584 26.404 139.584 27.412C139.584 28.612 139.338 29.656 138.846 30.544C138.354 31.42 137.682 32.146 136.83 32.722C135.99 33.298 135.03 33.724 133.95 34C132.882 34.288 131.772 34.432 130.62 34.432C128.988 34.432 127.524 34.246 126.228 33.874C124.944 33.502 123.906 33.1 123.114 32.668C122.322 32.236 121.848 31.948 121.692 31.804L124.374 27.286C124.518 27.394 124.794 27.568 125.202 27.808C125.622 28.048 126.132 28.3 126.732 28.564C127.332 28.816 127.968 29.032 128.64 29.212C129.324 29.392 129.996 29.482 130.656 29.482C131.76 29.482 132.588 29.272 133.14 28.852C133.692 28.42 133.968 27.856 133.968 27.16C133.968 26.644 133.794 26.182 133.446 25.774C133.098 25.366 132.576 24.982 131.88 24.622C131.184 24.25 130.314 23.86 129.27 23.452C128.226 23.032 127.248 22.522 126.336 21.922C125.436 21.322 124.704 20.572 124.14 19.672C123.576 18.772 123.294 17.656 123.294 16.324C123.294 14.992 123.666 13.84 124.41 12.868C125.166 11.884 126.156 11.128 127.38 10.6C128.616 10.072 129.936 9.808 131.34 9.808Z" fill="#080809"/>
</svg>
