<svg width="40" height="40" viewBox="0 0 40 40" fill="none" xmlns="http://www.w3.org/2000/svg">
<g clip-path="url(#clip0_507_1862)">
<path d="M1.16496 30.6181C0.446211 31.3381 0.446211 32.5094 1.16559 33.23L6.76996 38.8337C7.12996 39.1937 7.60309 39.3738 8.07621 39.3738C8.54934 39.3738 9.02246 39.1937 9.38246 38.8337L10.71 37.5062C11.3012 36.9137 11.4 36.0269 11.0012 35.2662L16.6293 32.9713C19.8162 31.6425 21.875 28.5994 21.8725 25.1656C21.5337 21.2775 17.7393 17.5612 13.4143 16.8819C13.3818 16.8775 13.3493 16.875 13.3175 16.875C9.66434 16.875 7.08059 19.0231 6.89309 22.1394C6.51246 22.3825 6.16121 22.6675 5.85121 23.0056C4.79246 24.1625 4.27434 25.7731 4.39246 27.5413C4.39434 27.5675 4.39809 27.5931 4.40309 27.6187L4.65871 28.9306C3.95371 28.5994 3.06246 28.7225 2.49309 29.2919L1.16496 30.6181ZM6.77309 23.85C7.55621 22.995 8.67496 22.5281 10.055 22.5006H10.0662C11.1368 22.5006 12.0225 23.0275 12.3787 23.8781C12.7093 24.6669 12.4962 25.5269 11.8362 26.1981L10.85 27.0206L11.6506 27.9806L12.6806 27.1175C13.0075 26.7869 13.255 26.4237 13.4381 26.0456L14.3812 26.7931C14.9531 27.2556 15.6512 27.5 16.3831 27.5C16.525 27.5 16.6681 27.4906 16.8118 27.4725C17.765 27.3488 18.6556 26.81 19.2543 25.9937L18.2462 25.2544C17.8487 25.7963 17.2681 26.1531 16.6512 26.2325C16.1081 26.3013 15.5818 26.1556 15.1625 25.8162L13.7731 24.7156C13.7868 24.2712 13.7125 23.8244 13.5312 23.3931C12.9843 22.09 11.625 21.2494 10.065 21.2494C10.06 21.2494 10.055 21.2494 10.05 21.2494C10.0437 21.2494 9.98246 21.2506 9.98121 21.2494C9.36309 21.2625 8.77996 21.3544 8.23809 21.5181C8.70809 19.4913 10.6425 18.1406 13.2687 18.1244C17.0406 18.7394 20.3368 21.9369 20.6256 25.22C20.6256 28.0938 18.8681 30.6831 16.1537 31.8156L10.1487 34.2637L6.20246 30.3175L5.63809 27.4181C5.55184 26.01 5.95434 24.7438 6.77309 23.85ZM3.83684 29.9887C3.98559 29.9887 4.12996 30.0362 4.23559 30.1187L9.78934 35.6713C10.0568 35.9769 10.0718 36.3769 9.82621 36.6231L8.49934 37.95C8.26621 38.1825 7.88746 38.1825 7.65434 37.95L2.04996 32.3463C1.81684 32.1131 1.81684 31.7344 2.04934 31.5013L3.37621 30.1744C3.50559 30.045 3.67434 29.9887 3.83684 29.9887Z" fill="black"/>
<path d="M27.5406 4.39311C25.7706 4.27436 24.1619 4.79249 23.005 5.85124C22.6669 6.16124 22.3813 6.51249 22.1388 6.89311C19.0231 7.07999 16.875 9.66499 16.875 13.3175C16.875 13.35 16.8775 13.3825 16.8825 13.4144C17.5619 17.7394 21.2781 21.5337 25.2206 21.875C28.6006 21.875 31.6431 19.8162 32.9737 16.625L35.2638 11.0081C35.5606 11.165 35.8794 11.25 36.1956 11.25C36.6769 11.25 37.1462 11.0694 37.5075 10.7087L38.835 9.38124C39.5538 8.66123 39.5537 7.48999 38.8344 6.76936L33.23 1.16561C32.51 0.44561 31.3381 0.44561 30.6175 1.16561L29.29 2.49311C28.7219 3.06249 28.5987 3.95311 28.93 4.65811L27.6187 4.40311C27.5925 4.39811 27.5662 4.39436 27.5406 4.39311ZM31.8181 16.1487C30.6844 18.8681 28.0944 20.625 25.2744 20.6275C21.9381 20.3362 18.74 17.0406 18.125 13.2681C18.1413 10.6419 19.4919 8.70749 21.5188 8.23749C21.3544 8.77936 21.2631 9.36248 21.25 9.98061C21.25 9.98436 21.2506 10.0462 21.2506 10.05C21.245 11.6156 22.0862 12.9825 23.3944 13.5306C23.7912 13.6975 24.2019 13.7794 24.6119 13.7794C24.6469 13.7794 24.6819 13.775 24.7169 13.7737L25.8206 15.1662C26.1562 15.5812 26.3025 16.1081 26.2319 16.6506C26.1525 17.2669 25.7963 17.8481 25.2544 18.2456L25.9944 19.2531C26.8106 18.6544 27.3488 17.7644 27.4719 16.8106C27.5869 15.9262 27.3456 15.0631 26.7969 14.385L26.0437 13.435C26.4331 13.245 26.8088 12.9806 27.1569 12.6356L27.9794 11.6494L27.02 10.8487L26.2375 11.7906C25.5262 12.4944 24.665 12.7094 23.8775 12.3775C23.0244 12.0194 22.4969 11.1294 22.5 10.0062C22.5275 8.67374 22.9944 7.55499 23.8494 6.77186C24.7431 5.95311 26.0087 5.55123 27.4187 5.63623L30.3187 6.20061L34.265 10.1456L31.8181 16.1487ZM30.1744 3.37686L31.5013 2.04999C31.7344 1.81749 32.1131 1.81749 32.3463 2.04999L37.95 7.65374C38.1831 7.88686 38.1831 8.26561 37.9506 8.49873L36.6237 9.82561C36.3781 10.0712 35.9775 10.0581 35.7019 9.81811L30.1187 4.23499C29.9462 4.01499 29.9269 3.62499 30.1744 3.37686Z" fill="black"/>
<path d="M27.0524 27.3174L27.9361 26.4336L34.1851 32.6826L33.3014 33.5663L27.0524 27.3174Z" fill="black"/>
<path d="M23.75 28.125H25V35.625H23.75V28.125Z" fill="black"/>
<path d="M28.75 23.125H36.25V24.375H28.75V23.125Z" fill="black"/>
<path d="M4.55664 5.44226L5.44039 4.55851L11.0646 10.1827L10.1808 11.0664L4.55664 5.44226Z" fill="black"/>
<path d="M3.125 13.125H9.375V14.375H3.125V13.125Z" fill="black"/>
<path d="M13.75 3.125H15V9.375H13.75V3.125Z" fill="black"/>
</g>
<defs>
<clipPath id="clip0_507_1862">
<rect width="40" height="40" fill="white"/>
</clipPath>
</defs>
</svg>
