<svg width="40" height="40" viewBox="0 0 40 40" fill="none" xmlns="http://www.w3.org/2000/svg">
<g clip-path="url(#clip0_507_3175)">
<path d="M17.3836 30.6736C17.0791 30.3697 16.7815 30.0461 16.498 29.7122C16.2604 29.4322 15.8405 29.3982 15.5608 29.6358C15.2808 29.8734 15.2465 30.2933 15.4844 30.5733C15.7907 30.9341 16.1147 31.2853 16.4442 31.6142C16.8486 32.0186 17.2747 32.4047 17.7109 32.763C17.9944 32.9963 18.413 32.9555 18.6463 32.6721C18.7583 32.5359 18.8118 32.3608 18.7948 32.1851C18.7775 32.0096 18.6915 31.8481 18.555 31.7361C18.1522 31.405 17.758 31.048 17.3836 30.6736Z" fill="black"/>
<path d="M13.6319 24.7372C13.5063 24.3956 13.1291 24.2183 12.786 24.3399C12.4426 24.4615 12.2612 24.8368 12.3788 25.1812C12.7278 26.1648 13.1657 27.1147 13.6864 28.0188C13.8055 28.2249 14.0255 28.3518 14.2635 28.3515C14.3804 28.3518 14.4949 28.3214 14.5961 28.263C14.7489 28.1748 14.8606 28.0297 14.9064 27.8592C14.9522 27.6887 14.9284 27.5068 14.8399 27.3539C14.3588 26.5204 13.9544 25.6444 13.6319 24.7372Z" fill="black"/>
<path d="M12.9172 21.9441C12.7814 21.0994 12.713 20.2455 12.7127 19.3899V19.0663C12.7164 18.8896 12.6495 18.7191 12.5273 18.5917C12.4051 18.4645 12.2374 18.3909 12.061 18.3875C11.6987 18.3924 11.4023 18.6771 11.3828 19.0388V19.3899C11.3831 20.316 11.4571 21.2405 11.6044 22.1549C11.656 22.477 11.9336 22.7137 12.2597 22.7143C12.2956 22.7143 12.3315 22.7115 12.3667 22.7056C12.7288 22.6471 12.975 22.3065 12.9172 21.9441Z" fill="black"/>
<path d="M18.9368 22.6477C18.641 21.9333 18.4161 21.192 18.2644 20.4336C18.1917 20.0747 17.8418 19.8423 17.4826 19.9144C17.123 19.9862 16.8897 20.3355 16.9609 20.695C17.1289 21.5376 17.3795 22.3615 17.7087 23.1549C17.7963 23.3795 17.9984 23.5388 18.2369 23.572C18.4758 23.6051 18.7134 23.5064 18.8588 23.3142C19.0039 23.1221 19.0336 22.8662 18.9368 22.6456V22.6477Z" fill="black"/>
<path d="M17.3759 18.7649C17.7487 18.7454 18.0386 18.4335 18.0312 18.0604C18.0309 17.3082 18.1005 16.5576 18.2388 15.8184C18.3066 15.4573 18.0686 15.1098 17.7079 15.0421C17.3468 14.9743 16.9993 15.2123 16.9316 15.573C16.7781 16.3933 16.701 17.2259 16.7017 18.0604V18.1393C16.7054 18.311 16.7778 18.4741 16.9028 18.5917C17.0278 18.7092 17.1949 18.7717 17.3666 18.7649H17.3759Z" fill="black"/>
<path d="M20.0257 24.6855C19.8945 24.4866 19.6668 24.373 19.4289 24.3882C19.1909 24.4034 18.9793 24.5448 18.8744 24.7589C18.7692 24.9727 18.7869 25.2264 18.9202 25.4241C19.3976 26.1379 19.9422 26.8044 20.5465 27.4146C20.8058 27.6683 21.2207 27.6673 21.479 27.4121C21.7371 27.1571 21.7427 26.7419 21.4917 26.4798C20.9472 25.9297 20.4561 25.3288 20.0257 24.6855Z" fill="black"/>
<path d="M23.2724 27.9662C22.9688 27.7592 22.5548 27.8375 22.3478 28.141C22.1408 28.4443 22.2188 28.8583 22.5224 29.0652C23.2328 29.5498 23.9887 29.9641 24.7795 30.302C25.1174 30.4462 25.5082 30.2893 25.6524 29.9517C25.7966 29.6138 25.6397 29.223 25.3021 29.0786C24.5908 28.7753 23.9107 28.4028 23.2724 27.9662Z" fill="black"/>
<path d="M39.3574 1.33141C38.9081 0.788387 38.2602 0.447415 37.5582 0.384914L33.5884 0.0123814C32.8863 -0.0556893 32.1858 0.158115 31.6416 0.607381C31.0976 1.05634 30.7545 1.70363 30.6886 2.40599L29.4107 15.9648C28.1591 14.3614 26.514 13.1092 24.6352 12.3301L24.7117 2.80668C24.7216 1.33883 23.5421 0.139859 22.0742 0.125626L18.085 0.0943756C17.3795 0.0875686 16.7007 0.362017 16.1976 0.856768C15.6948 1.35152 15.4095 2.02635 15.4046 2.73181L15.3832 5.37233C15.3783 5.3909 15.3745 5.40946 15.3718 5.42833C15.3745 5.44566 15.3779 5.46299 15.3826 5.48001L15.3266 12.3719C13.4834 13.151 11.8701 14.3886 10.6396 15.9666L9.35894 2.40909C9.29613 1.70827 8.95485 1.0616 8.41152 0.614188C7.86789 0.162756 7.16676 -0.0538329 6.46315 0.0123814L2.49401 0.384914C1.79134 0.448653 1.14281 0.789625 0.691997 1.33202C0.240874 1.87473 0.0242857 2.57432 0.0898811 3.27699L3.38667 38.1936C3.48011 39.2196 4.34244 40.0039 5.37279 39.9999H10.7126C11.2742 39.9999 11.8098 39.7632 12.1879 39.348C12.566 38.9327 12.7513 38.377 12.6984 37.8179L12.186 32.4054C13.135 33.2374 14.2105 33.9131 15.3718 34.4073V38.0054C15.3718 39.1069 16.2647 39.9999 17.3665 39.9999H22.685C23.7865 39.9999 24.6795 39.1069 24.6795 38.0054V34.4073C25.2751 34.1529 25.8488 33.85 26.3949 33.5019C26.4042 33.4957 26.415 33.4917 26.4237 33.4852C26.9298 33.1622 27.411 32.8017 27.8637 32.4069L27.3516 37.8173C27.2987 38.3767 27.484 38.9321 27.8621 39.3477C28.2399 39.7632 28.7758 40.0002 29.3374 39.9999H34.6775C35.7079 40.0042 36.5702 39.2192 36.6627 38.1929L39.7098 5.92556L39.9598 3.27482C40.026 2.57277 39.8091 1.87319 39.3574 1.33141ZM32.4869 1.63865C32.7586 1.41 33.1116 1.30201 33.4649 1.33945L37.4359 1.71167C38.164 1.78191 38.6987 2.42673 38.6327 3.15508L38.4446 5.14244L31.8241 4.52207L32.0123 2.53285C32.0435 2.18291 32.2146 1.8605 32.4869 1.63865ZM28.4113 29.9131C28.1103 29.8731 27.8077 29.8354 27.5171 29.7747C27.282 29.7191 27.035 29.7952 26.8723 29.974C26.7095 30.1529 26.6566 30.406 26.734 30.6349C26.8117 30.8639 27.0075 31.0328 27.2451 31.0758C27.2764 31.0826 27.3117 31.0845 27.3411 31.091C26.8955 31.5189 26.4134 31.9072 25.9011 32.2519C21.9666 31.2624 18.6593 28.6073 16.843 24.9798C15.0265 21.3522 14.8816 17.1133 16.4463 13.3703C16.8538 13.224 17.2703 13.1027 17.693 13.0074C17.6797 13.0393 17.6642 13.0699 17.6515 13.1018C17.5147 13.4427 17.68 13.8298 18.0206 13.9669C18.3613 14.1036 18.7487 13.9387 18.8854 13.5977C18.9965 13.3211 19.1324 13.0507 19.2657 12.78C19.5179 12.7608 19.7704 12.7416 20.0256 12.7416C21.2385 12.7438 22.4421 12.9535 23.5839 13.362C23.6922 13.4458 23.824 13.4938 23.961 13.4981H23.9651C27.0722 14.7361 29.4154 17.3645 30.2901 20.5929C31.1645 23.8213 30.4686 27.2732 28.4113 29.9103V29.9131ZM20.0256 11.4117C18.8867 11.4124 17.7536 11.5751 16.6605 11.8944L16.7069 6.09326H23.3552L23.3088 11.8771C22.241 11.5714 21.1364 11.4145 20.0256 11.4117ZM17.1305 1.80481C17.3783 1.56006 17.7128 1.42299 18.0612 1.42392H18.0726L22.0616 1.45517C22.4143 1.45796 22.7515 1.6009 22.9988 1.85246C23.2463 2.10401 23.3837 2.44343 23.3806 2.79616L23.3667 4.76341H16.7183L16.7347 2.74233C16.7363 2.3896 16.8786 2.05203 17.1305 1.80481ZM1.71553 2.18105C1.93986 1.90939 2.26443 1.73921 2.61561 1.7092L6.58661 1.33605C6.93903 1.30232 7.29021 1.41031 7.56281 1.63618C7.83416 1.85895 8.00434 2.18198 8.03466 2.53223L8.22278 4.51959L1.60167 5.13965L1.41417 3.15384C1.38075 2.80235 1.48904 2.4521 1.71553 2.18105ZM11.204 38.4528C11.0787 38.5924 10.9001 38.6713 10.7126 38.6704H5.37279C5.02872 38.6719 4.74035 38.4111 4.70786 38.0685L1.72667 6.46425L8.34778 5.84387L9.47126 17.7445C7.21998 21.9772 7.70545 27.1438 10.7061 30.8831L11.3707 37.9429C11.3902 38.1289 11.3296 38.3142 11.204 38.4528ZM11.9088 16.513C11.9989 16.6139 12.1183 16.6838 12.2504 16.7126C12.2943 16.7213 12.3389 16.7259 12.3835 16.7259C12.6991 16.7256 12.971 16.5034 13.0341 16.194C13.1053 15.8422 13.1972 15.4886 13.2944 15.1371C13.7511 14.7661 14.2378 14.4341 14.7495 14.1445C12.2637 22.0035 16.472 30.4159 24.2522 33.1396C23.504 33.4633 22.7209 33.699 21.9186 33.8417C21.5916 33.6901 21.2651 33.5332 20.9526 33.3602C20.7982 33.2751 20.616 33.2547 20.4467 33.3036C20.2772 33.3528 20.1342 33.467 20.0491 33.6214C19.9857 33.742 19.9625 33.8797 19.9826 34.0143C15.8498 33.9998 12.1003 31.591 10.3689 27.8381C8.6374 24.0856 9.23796 19.6697 11.9088 16.5158V16.513ZM23.3499 38.0054C23.3499 38.3727 23.0523 38.6704 22.685 38.6704H17.3665C16.9993 38.6704 16.7016 38.3727 16.7016 38.0054V34.8736C18.361 35.3627 20.1089 35.4738 21.8168 35.1991H21.8208C21.8864 35.1991 21.9517 35.1888 22.0142 35.1694C22.4647 35.0963 22.9109 34.9976 23.3499 34.8736V38.0054ZM35.3391 38.0679C35.3066 38.4104 35.0182 38.6719 34.6741 38.6704H29.3374C29.1496 38.6713 28.9701 38.5924 28.8436 38.4538C28.717 38.3151 28.6548 38.1292 28.6728 37.9423L29.3436 30.8849C32.3464 27.1447 32.8322 21.9754 30.5787 17.7411L31.7022 5.84387L38.3227 6.46425L35.3391 38.0679Z" fill="black"/>
</g>
<defs>
<clipPath id="clip0_507_3175">
<rect width="40" height="40" fill="white"/>
</clipPath>
</defs>
</svg>
