<svg width="40" height="40" viewBox="0 0 40 40" fill="none" xmlns="http://www.w3.org/2000/svg">
<g clip-path="url(#clip0_507_2152)">
<path d="M15.694 21.82C11.2801 21.8188 7.49449 18.6707 6.68825 14.3313C5.882 9.99181 8.28426 5.69417 12.4031 4.10792C16.5219 2.52137 21.1863 4.09694 23.4995 7.85596C25.8126 11.615 25.1169 16.4891 21.8446 19.4507C20.1607 20.9787 17.9675 21.8234 15.694 21.82ZM15.6805 5.158C12.3329 5.16196 9.39323 7.38387 8.47651 10.6034C7.55949 13.8229 8.88727 17.2602 11.7305 19.0274C14.5737 20.7943 18.2436 20.4632 20.7246 18.2157C22.9722 16.179 23.7714 12.9888 22.75 10.1331C21.7286 7.27706 19.0874 5.3176 16.058 5.16807C15.9323 5.16135 15.8063 5.158 15.6805 5.158Z" fill="black"/>
<path d="M30.0634 33.0778C29.8284 33.0778 29.6041 32.9787 29.446 32.8044C28.0392 31.2505 26.4697 29.8522 24.7645 28.6337C23.4907 27.7884 22.1324 27.0786 20.7113 26.5156C19.3042 25.955 17.8418 25.5433 16.3489 25.2873C15.8766 25.204 15.4115 25.1472 14.969 25.1097C13.9977 25.0548 13.0352 24.8945 12.0983 24.6324C7.77839 23.337 4.49115 19.8148 3.49662 15.4158C2.50209 11.0169 3.95437 6.42321 7.29684 3.39536L8.4174 4.62884C5.52078 7.25234 4.26167 11.2332 5.12284 15.0453C5.98432 18.8578 8.83212 21.9106 12.5756 23.0339C13.4026 23.2622 14.2515 23.402 15.1081 23.4505C15.5989 23.4923 16.1082 23.5573 16.6282 23.6455C19.8651 24.2049 22.9503 25.4313 25.6879 27.2471C27.2858 28.3756 28.7679 29.6594 30.1125 31.0802L31.3567 29.953L32.4766 31.188L30.6243 32.8661C30.4701 33.0037 30.2703 33.0794 30.0634 33.0778Z" fill="black"/>
<path d="M32.4759 31.1837L31.356 29.9487L32.6007 28.8205C31.3199 27.3438 30.1884 25.7441 29.2225 24.0447C27.686 21.1419 26.7693 17.9517 26.5301 14.6761C26.4935 14.1591 26.4785 13.6443 26.4861 13.1445C26.5212 12.2873 26.4654 11.4288 26.3192 10.5835C25.5703 6.74852 22.8141 3.61417 19.1066 2.38099C15.3989 1.14752 11.3142 2.00656 8.41732 4.62884L7.29675 3.39536C10.6383 0.366906 15.3525 -0.626711 19.6321 0.795358C23.9121 2.21743 27.094 5.83485 27.9586 10.261C28.127 11.2195 28.192 12.193 28.1526 13.1652C28.1459 13.6169 28.1594 14.0819 28.1917 14.5543C28.4145 17.5984 29.2671 20.5627 30.6959 23.2598C31.7411 25.0764 32.9782 26.7756 34.3866 28.328C34.6957 28.6691 34.6697 29.1965 34.3283 29.5053L32.4759 31.1837Z" fill="black"/>
<path d="M22.3463 21.2445L23.581 20.126L25.8188 22.5966L24.5841 23.7148L22.3463 21.2445Z" fill="black"/>
<path d="M35.8374 39.056C35.7675 39.056 35.6973 39.056 35.6274 39.0502C34.523 38.9987 33.4855 38.5076 32.7451 37.6867L28.8283 33.3644C28.5189 33.0235 28.5448 32.4962 28.886 32.1871L33.8257 27.7112C33.9905 27.5644 34.2059 27.4875 34.4266 27.4973C34.6472 27.508 34.8547 27.6059 35.0033 27.7695L38.9198 32.0919C40.0267 33.3125 40.3105 35.0709 39.6434 36.5775C38.9766 38.0841 37.4843 39.0563 35.8364 39.0576L35.8374 39.056ZM30.6227 32.8621L33.9798 36.5668C34.9069 37.5897 36.4877 37.6678 37.5106 36.741C38.5329 35.8143 38.611 34.2341 37.6848 33.2112L34.3274 29.5053L30.6227 32.8621Z" fill="black"/>
<path d="M35.8331 36.5442C35.805 36.5442 35.7772 36.5442 35.7498 36.5442C34.9969 36.507 34.3628 35.9684 34.2035 35.2314C34.0445 34.4944 34.4 33.7425 35.0705 33.3977C35.7412 33.0528 36.5597 33.2011 37.0666 33.7596C37.5084 34.2478 37.6214 34.9503 37.3546 35.5524C37.0879 36.1548 36.4916 36.5433 35.8331 36.5442Z" fill="black"/>
<path d="M9.47595 7.04239L10.7116 5.92305L21.902 18.2734L20.6664 19.393L9.47595 7.04239Z" fill="black"/>
<path d="M8.95532 17.6365L21.3035 6.44335L22.4232 7.67896L10.0753 18.8718L8.95532 17.6365Z" fill="black"/>
<path d="M7.13782 10.6656L8.37343 9.54596L18.0438 20.2185L16.8082 21.3381L7.13782 10.6656Z" fill="black"/>
<path d="M13.3131 5.07163L14.5487 3.95198L24.2408 14.6489L23.0048 15.7686L13.3131 5.07163Z" fill="black"/>
<path d="M6.98425 13.8006L17.6803 4.10518L18.8002 5.34079L8.10421 15.0362L6.98425 13.8006Z" fill="black"/>
<path d="M12.5798 19.975L23.2753 10.2799L24.3952 11.5155L13.6998 21.2103L12.5798 19.975Z" fill="black"/>
<path d="M5.34189 39.1726L3.78585 38.576C4.21155 37.4716 4.14716 36.2384 3.60946 35.1844C3.06719 34.1322 2.10347 33.3601 0.958496 33.0601L1.38359 31.4495C2.98601 31.8697 4.33423 32.9512 5.09165 34.4245C5.84571 35.8997 5.93665 37.626 5.34189 39.1726Z" fill="black"/>
<path d="M10.285 36.6394C8.68131 36.221 7.33248 35.1389 6.57659 33.6641C5.8207 32.1892 5.72976 30.4623 6.32666 28.9163L7.88239 29.5138C7.45485 30.6176 7.51924 31.8517 8.05939 32.9054C8.59953 33.9589 9.56385 34.7312 10.71 35.0285L10.285 36.6394Z" fill="black"/>
<path d="M5.8442 39.8775C2.97504 39.883 0.527926 37.8012 0.0735358 34.9683C-0.380855 32.1355 1.29236 29.3927 4.01932 28.5004C6.74627 27.6084 9.71705 28.8318 11.025 31.3854C11.9503 33.192 11.8697 35.3495 10.8129 37.0822C9.75581 38.8149 7.87386 39.8736 5.8442 39.8775ZM5.82681 29.8779C3.96103 29.8812 2.32504 31.1245 1.82213 32.9213C1.31922 34.7178 2.07176 36.6297 3.66472 37.6013C5.25737 38.5729 7.30167 38.3673 8.66912 37.0978C10.0366 35.8286 10.3933 33.8051 9.5425 32.1443C8.83177 30.7473 7.39414 29.8706 5.82681 29.8779Z" fill="black"/>
</g>
<defs>
<clipPath id="clip0_507_2152">
<rect width="40" height="40" fill="white"/>
</clipPath>
</defs>
</svg>
