<svg width="40" height="40" viewBox="0 0 40 40" fill="none" xmlns="http://www.w3.org/2000/svg">
<g clip-path="url(#clip0_507_2481)">
<path d="M39.9976 21.6064C39.9515 19.4087 39.2371 17.3194 37.9319 15.5646C37.2696 14.6736 36.4691 13.8946 35.5526 13.2492C34.6358 12.6037 33.6326 12.1126 32.5706 11.7894C30.4778 11.1523 28.27 11.1841 26.1862 11.8814C24.0569 12.5937 22.2461 13.9433 20.9497 15.7845C20.7965 16.0021 20.6508 16.2264 20.5165 16.4512C19.5051 18.1435 18.9948 20.0806 19.0407 22.0528C19.0944 24.3986 19.9423 26.6823 21.4276 28.483C22.0215 29.2037 22.7137 29.8444 23.4849 30.3875C24.2562 30.9305 25.0926 31.3661 25.9707 31.6822C27.108 32.0921 28.3094 32.2975 29.5127 32.2975C30.6334 32.2975 31.7559 32.1194 32.8298 31.7625C34.7014 31.1411 36.353 30.008 37.6062 28.4852C37.773 28.2824 37.9351 28.0694 38.088 27.8523L38.0879 27.8523C39.3843 26.0109 40.0448 23.8512 39.9976 21.6064ZM34.8602 14.2323C35.3373 14.5683 35.7776 14.946 36.1796 15.3594C35.4779 15.3406 34.7835 15.2579 34.2341 15.1216C33.9204 14.6501 33.6084 14.0241 33.3541 13.3699C33.879 13.609 34.383 13.8962 34.8602 14.2323ZM26.914 12.9133C27.7707 12.6625 28.6478 12.5366 29.5247 12.5366C30.3243 12.5366 31.1237 12.6414 31.907 12.8505C32.1993 13.8423 32.6526 14.8691 33.1358 15.6368L31.8272 17.4954C30.4255 17.1835 28.4124 17.1471 27.043 17.5535L25.8519 16.1403C26.3244 15.2335 26.7232 14.0233 26.914 12.9133ZM33.1732 22.9261C32.4636 23.8298 30.7931 25.1487 29.5679 25.6333C28.1233 25.1658 26.8362 24.2592 25.9094 23.0568C25.9427 21.738 26.5228 19.8623 27.2416 18.7516C28.3923 18.3546 30.4608 18.3946 31.7119 18.7033C32.424 19.7764 33.1583 21.7087 33.1732 22.9261ZM25.5801 13.4162C25.373 14.2515 25.059 15.0963 24.7141 15.7185C24.0046 15.9584 23.0578 16.1201 22.1612 16.166C23.0724 14.9775 24.2372 14.0427 25.5801 13.4162ZM21.6752 26.7773C20.9869 25.6855 20.5309 24.4528 20.3408 23.1712C20.9742 23.6081 21.5739 24.1151 21.9895 24.5761C21.9848 25.2152 21.8676 26.0135 21.6752 26.7773ZM20.2412 21.6851C20.2613 20.1763 20.649 18.7004 21.372 17.3775C21.4648 17.3801 21.5582 17.3823 21.6531 17.3823C22.751 17.3823 23.9783 17.2072 24.9298 16.912L26.104 18.3051C25.3533 19.5637 24.7916 21.3975 24.715 22.8461L22.7551 23.6337C22.1017 22.947 21.1614 22.2176 20.2412 21.6851ZM24.1772 29.4043C23.5869 28.9887 23.0496 28.5086 22.5752 27.9744C22.9274 26.9402 23.1569 25.7325 23.1881 24.7555L25.1114 23.9826C26.1207 25.2173 27.4637 26.163 28.9664 26.6971L28.8869 28.7682C27.9774 29.1269 26.9177 29.75 26.0627 30.4302C25.4004 30.1639 24.7673 29.8199 24.1772 29.4043ZM27.4933 30.8741C28.1474 30.4356 28.8596 30.0562 29.4598 29.8362C30.034 30.0722 30.7137 30.4659 31.3385 30.9151C30.0677 31.1681 28.7534 31.1542 27.4933 30.8741ZM32.7713 30.508C31.9598 29.8211 30.9559 29.1816 30.0891 28.7978L30.1702 26.6841C31.5098 26.105 33.1184 24.8413 33.9711 23.8467L35.6848 24.4849C35.7313 25.5662 36.0212 26.905 36.4455 27.9916C35.4433 29.1182 34.1845 29.9807 32.7713 30.508ZM36.1001 23.3566L34.3682 22.7116C34.2892 21.2851 33.5765 19.4022 32.8104 18.1876L34.119 16.3291C34.8141 16.4831 35.6534 16.5664 36.4819 16.5664C36.7087 16.5664 36.9342 16.5595 37.156 16.5469C38.1224 17.9448 38.6801 19.5644 38.7809 21.2687C37.8001 21.8222 36.7948 22.6056 36.1001 23.3566ZM37.32 26.8402C37.0609 25.9801 36.8939 25.0341 36.8806 24.2855C37.3505 23.7508 38.0402 23.1703 38.7569 22.6939C38.6198 24.1697 38.1322 25.5816 37.32 26.8402Z" fill="black"/>
<path d="M19.5891 11.9028C19.665 11.9345 19.7437 11.9495 19.821 11.9495C20.0561 11.9495 20.2795 11.8108 20.3759 11.5802L24.7308 1.17289C24.859 0.866564 24.7145 0.514377 24.4083 0.386252C24.1021 0.258127 23.7498 0.402424 23.6216 0.708752L21.7455 5.19188L12.1115 2.85313L12.506 1.07094C12.5778 0.746799 12.3732 0.425783 12.049 0.353986C11.7251 0.282189 11.4038 0.486877 11.3321 0.811096L8.15766 15.1492C8.02602 15.1397 7.8932 15.1727 7.78094 15.2477L3.18812 18.3095C3.15289 18.3323 3.1193 18.3588 3.08844 18.3898L2.16828 19.3099C2.1675 19.3107 2.16688 19.3116 2.16602 19.3124L0.176016 21.3023C0.0633594 21.415 0 21.5679 0 21.7273C0 21.8868 0.0633594 22.0398 0.176016 22.1524L0.951563 22.928L0.225625 23.6539C-0.00921875 23.8887 -0.00921875 24.2693 0.225547 24.5041C0.342969 24.6215 0.496797 24.6802 0.650703 24.6802C0.804531 24.6802 0.958438 24.6215 1.07578 24.5041L1.8018 23.7781L4.15062 26.127L3.42469 26.8529C3.18992 27.0877 3.18992 27.4684 3.42469 27.703C3.54211 27.8204 3.69602 27.8791 3.84984 27.8791C4.00367 27.8791 4.15758 27.8205 4.275 27.703L5.00094 26.9771L7.34977 29.3259L6.62383 30.0518C6.38898 30.2866 6.38898 30.6672 6.62375 30.902C6.74117 31.0194 6.895 31.0781 7.04891 31.0781C7.20273 31.0781 7.35664 31.0194 7.47398 30.902L8.19992 30.176L10.5487 32.5248L9.82273 33.2507C9.58797 33.4855 9.58797 33.8662 9.82281 34.1009C9.94016 34.2183 10.0941 34.277 10.2479 34.277C10.4017 34.277 10.5556 34.2183 10.673 34.1009L11.3989 33.3749L12.9817 34.9577C13.0909 35.0669 13.3699 35.341 13.7705 35.7006L13.0216 36.4495C12.7869 36.6843 12.7869 37.065 13.0216 37.2997C13.1391 37.417 13.293 37.4758 13.4468 37.4758C13.6006 37.4758 13.7545 37.4171 13.872 37.2997L14.6874 36.4842C15.4124 37.0738 16.3023 37.7261 17.2413 38.2492L16.9273 38.73C16.7456 39.008 16.8237 39.3805 17.1017 39.5621C17.2033 39.6284 17.3172 39.6601 17.4301 39.6601C17.6262 39.6601 17.8186 39.5641 17.9339 39.3876L18.3305 38.7805C19.0268 39.0682 19.7253 39.2489 20.3817 39.2488C20.7966 39.2488 21.195 39.1766 21.5648 39.0134C21.6328 38.9833 21.6947 38.9409 21.7472 38.8884L23.0509 37.5848C23.0646 37.571 23.0778 37.5566 23.0902 37.5415C23.1677 37.4473 23.5493 36.9288 23.4538 35.9699C23.3023 34.452 22.0575 32.7163 19.7525 30.8091L19.4602 29.8835C19.3602 29.567 19.0224 29.3913 18.7059 29.4913C18.3892 29.5913 18.2136 29.9291 18.3136 30.2457L18.6596 31.3414C18.6948 31.4532 18.762 31.5522 18.853 31.6263C21.5255 33.8055 22.1599 35.2548 22.2502 36.0509C20.4638 35.971 17.7452 34.0366 15.824 32.1155L8.27852 24.57C8.04367 24.3352 7.66305 24.3352 7.42828 24.57C7.19352 24.8048 7.19352 25.1855 7.42828 25.4202L14.9738 32.9656C15.4042 33.3961 18.827 36.7384 21.7333 37.2019L20.9839 37.9513C20.2333 38.2156 19.044 37.9085 17.6157 37.0781C16.3988 36.3706 14.9843 35.2602 13.8317 34.1077L1.45141 21.7273L2.59344 20.5854L6.13 24.122C6.24742 24.2395 6.40125 24.2981 6.55516 24.2981C6.70898 24.2981 6.86289 24.2395 6.98031 24.122C7.21508 23.8873 7.21508 23.5066 6.98031 23.2719L3.44375 19.7352L3.89656 19.2824L7.7975 16.6816C8.18797 17.7007 9.04656 19.5402 10.603 21.0966C11.6473 22.1409 12.9761 22.4733 14.4456 22.0583C14.8863 21.9338 15.2751 21.7584 15.5809 21.5944L16.1951 23.5388L15.4503 23.6672C15.1231 23.7236 14.9036 24.0345 14.9601 24.3619C15.0105 24.6545 15.2646 24.861 15.5518 24.861C15.5857 24.861 15.6202 24.8581 15.6546 24.8522L16.5605 24.6959L16.6545 24.9934L15.9413 25.1255C15.6148 25.1859 15.3991 25.4996 15.4595 25.8261C15.5131 26.1155 15.7659 26.318 16.05 26.318C16.0863 26.318 16.1232 26.3146 16.1602 26.3078L17.0192 26.1487L17.1123 26.4436L16.3629 26.5823C16.0364 26.6428 15.8207 26.9565 15.8811 27.283C15.9347 27.5724 16.1874 27.7748 16.4716 27.7748C16.5079 27.7748 16.5448 27.7715 16.5818 27.7647L17.4772 27.5988L17.802 28.6268C17.9019 28.9434 18.2399 29.1191 18.5563 29.0191C18.8729 28.919 19.0485 28.5813 18.9485 28.2647L18.6683 27.3774C18.9856 27.3097 19.1934 27.0016 19.134 26.6806C19.0734 26.3541 18.7598 26.1383 18.4333 26.1989L18.3036 26.223L18.2105 25.928L18.2305 25.9244C18.557 25.8639 18.7727 25.5502 18.7123 25.2238C18.6518 24.8973 18.3382 24.6816 18.0116 24.742L17.8456 24.7728L17.7562 24.4898L17.8783 24.4688C18.2055 24.4123 18.425 24.1014 18.3685 23.7741C18.3122 23.4469 18.0009 23.2273 17.6739 23.2838L17.3907 23.3326L16.5594 20.7006L19.6081 13.415C19.7363 13.1087 19.5919 12.7565 19.2856 12.6284C18.9791 12.5 18.627 12.6445 18.4989 12.9509L15.4302 20.2845C14.9307 20.629 12.9938 21.787 11.4535 20.2466C10.2239 19.017 9.46938 17.5592 9.06672 16.6061L11.0956 7.44196C11.2948 7.51375 11.5326 7.5907 11.8185 7.6757C13.439 8.15703 16.1776 8.75274 19.9649 9.44774L19.2666 11.1165C19.1385 11.4225 19.2829 11.7747 19.5891 11.9028ZM11.3579 6.25742L11.8516 4.02735L21.2756 6.31524L20.4401 8.31195C14.0886 7.15313 12.0128 6.51531 11.3579 6.25742Z" fill="black"/>
</g>
<defs>
<clipPath id="clip0_507_2481">
<rect width="40" height="40" fill="white"/>
</clipPath>
</defs>
</svg>
