<svg width="40" height="40" viewBox="0 0 40 40" fill="none" xmlns="http://www.w3.org/2000/svg">
<path d="M29.5758 19.4545C30.8485 19.4545 32 18.9697 32.9091 18.0606C34.7273 16.2424 34.7273 13.2121 32.9091 11.3939C32 10.4848 30.8485 10 29.5758 10C28.303 10 27.1515 10.4848 26.2424 11.3939C24.4242 13.2121 24.4242 16.2424 26.2424 18.0606C27.0909 18.9697 28.303 19.4545 29.5758 19.4545ZM27.0909 12.303C27.7576 11.6364 28.6061 11.2727 29.5758 11.2727C30.4848 11.2727 31.3939 11.6364 32.0606 12.303C33.4545 13.697 33.4545 15.8788 32.0606 17.2727C31.3939 17.9394 30.4848 18.303 29.5758 18.303C28.6667 18.303 27.7576 17.9394 27.0909 17.2727C25.697 15.8788 25.697 13.6364 27.0909 12.303Z" fill="black"/>
<path d="M1.21214 23.9394C2.60608 23.9394 3.27275 24.3636 4.00002 24.8485C4.7879 25.3333 5.69699 25.9394 7.45457 25.9394C9.21214 25.9394 10.1212 25.3333 10.9091 24.8485C11.697 24.3636 12.3031 23.9394 13.697 23.9394C15.0909 23.9394 15.7576 24.3636 16.4849 24.8485C17.2727 25.3333 18.1818 25.9394 19.9394 25.9394C21.697 25.9394 22.6061 25.3333 23.394 24.8485C24.1818 24.3636 24.7879 23.9394 26.1818 23.9394C27.5758 23.9394 28.2424 24.3636 28.9697 24.8485C29.7576 25.3333 30.6667 25.9394 32.4243 25.9394C34.1818 25.9394 35.0909 25.3333 35.8788 24.8485C36.6667 24.3636 37.2728 23.9394 38.6667 23.9394C39.0303 23.9394 39.2728 23.697 39.2728 23.3333C39.2728 22.9697 39.0303 22.7273 38.6667 22.7273C36.9091 22.7273 36 23.3333 35.2121 23.8182C34.4243 24.303 33.8182 24.7273 32.4243 24.7273C31.0303 24.7273 30.3637 24.303 29.6364 23.8182C29.2121 23.5758 28.7879 23.2727 28.1818 23.0909C28.1818 23.0303 28.1212 22.9697 28.0606 22.9091L17.8182 12.6061L21.8788 8.54545C22.9697 7.45454 22.9697 5.75757 21.8788 4.66666C21.394 4.12121 20.6667 3.87878 19.9394 3.87878C19.2121 3.87878 18.5455 4.18181 18 4.66666L11.8182 11.0303C10.9697 11.8788 10.9697 13.2121 11.8182 14.0606L15.6364 17.8788L9.03032 24.3636L8.96972 24.4242C8.54547 24.5455 8.12123 24.6667 7.45457 24.6667C6.06063 24.6667 5.39396 24.2424 4.66669 23.7576C3.87881 23.2727 2.96972 22.6667 1.21214 22.6667C0.848503 22.6667 0.606079 22.9091 0.606079 23.2727C0.606079 23.6364 0.848503 23.9394 1.21214 23.9394ZM16.9091 17.3939L12.6667 13.1515C12.4849 12.9697 12.4243 12.7273 12.4243 12.4848C12.4243 12.2424 12.5455 12 12.6667 11.8182L18.9697 5.51515C19.2727 5.21212 19.6364 5.09091 20.0606 5.09091C20.4849 5.09091 20.8485 5.27272 21.1515 5.51515C21.7576 6.12121 21.7576 7.09091 21.1515 7.63636L16.6667 12.1212C16.4243 12.3636 16.4243 12.7273 16.6667 12.9697L26.3637 22.6667C26.3637 22.6667 26.3637 22.6667 26.3031 22.6667C24.5455 22.6667 23.6364 23.2727 22.8485 23.7576C22.0606 24.2424 21.4546 24.6667 20.0606 24.6667C18.6667 24.6667 18 24.2424 17.2727 23.7576C16.4849 23.2727 15.5758 22.6667 13.8182 22.6667C13.2121 22.6667 12.7273 22.7273 12.3031 22.8485L16.9091 18.2424C17.0303 18.1212 17.0909 18 17.0909 17.8182C17.0303 17.6364 16.9697 17.5151 16.9091 17.3939Z" fill="black"/>
<path d="M1.21214 29.0303C2.60608 29.0303 3.27275 29.4545 4.00002 29.9394C4.7879 30.4242 5.69699 31.0303 7.45457 31.0303C9.21214 31.0303 10.1212 30.4242 10.9091 29.9394C11.697 29.4545 12.3031 29.0303 13.697 29.0303C15.0909 29.0303 15.7576 29.4545 16.4849 29.9394C17.2727 30.4242 18.1818 31.0303 19.9394 31.0303C21.697 31.0303 22.6061 30.4242 23.394 29.9394C24.1818 29.4545 24.7879 29.0303 26.1818 29.0303C27.5758 29.0303 28.2424 29.4545 28.9697 29.9394C29.7576 30.4242 30.6667 31.0303 32.4243 31.0303C34.1818 31.0303 35.0909 30.4242 35.8788 29.9394C36.6667 29.4545 37.2728 29.0303 38.6667 29.0303C39.0303 29.0303 39.2728 28.7879 39.2728 28.4242C39.2728 28.0606 39.0303 27.8182 38.6667 27.8182C36.9091 27.8182 36 28.4242 35.2121 28.9091C34.4243 29.3939 33.8182 29.8182 32.4243 29.8182C31.0303 29.8182 30.3637 29.3939 29.6364 28.9091C28.8485 28.4242 27.9394 27.8182 26.1818 27.8182C24.4243 27.8182 23.5152 28.4242 22.7273 28.9091C21.9394 29.3939 21.3334 29.8182 19.9394 29.8182C18.5455 29.8182 17.8788 29.3939 17.1515 28.9091C16.3637 28.4242 15.4546 27.8182 13.697 27.8182C11.9394 27.8182 11.0303 28.4242 10.2424 28.9091C9.45457 29.3939 8.8485 29.8182 7.45457 29.8182C6.06063 29.8182 5.39396 29.3939 4.66669 28.9091C3.87881 28.4242 2.96972 27.8182 1.21214 27.8182C0.848503 27.8182 0.606079 28.0606 0.606079 28.4242C0.606079 28.7879 0.848503 29.0303 1.21214 29.0303Z" fill="black"/>
<path d="M1.21214 34.1212C2.60608 34.1212 3.27275 34.5455 4.00002 35.0303C4.7879 35.5151 5.69699 36.1212 7.45457 36.1212C9.21214 36.1212 10.1212 35.5151 10.9091 35.0303C11.697 34.5455 12.3031 34.1212 13.697 34.1212C15.0909 34.1212 15.7576 34.5455 16.4849 35.0303C17.2727 35.5151 18.1818 36.1212 19.9394 36.1212C21.697 36.1212 22.6061 35.5151 23.394 35.0303C24.1818 34.5455 24.7879 34.1212 26.1818 34.1212C27.5758 34.1212 28.2424 34.5455 28.9697 35.0303C29.7576 35.5151 30.6667 36.1212 32.4243 36.1212C34.1818 36.1212 35.0909 35.5151 35.8788 35.0303C36.6667 34.5455 37.2728 34.1212 38.6667 34.1212C39.0303 34.1212 39.2728 33.8788 39.2728 33.5151C39.2728 33.1515 39.0303 32.9091 38.6667 32.9091C36.9091 32.9091 36 33.5151 35.2121 34C34.4243 34.4848 33.8182 34.9091 32.4243 34.9091C31.0303 34.9091 30.3637 34.4848 29.6364 34C28.8485 33.5151 27.9394 32.9091 26.1818 32.9091C24.4243 32.9091 23.5152 33.5151 22.7273 34C21.9394 34.4848 21.3334 34.9091 19.9394 34.9091C18.5455 34.9091 17.8788 34.4848 17.1515 34C16.3637 33.5151 15.4546 32.9091 13.697 32.9091C11.9394 32.9091 11.0303 33.5151 10.2424 34C9.45457 34.4848 8.8485 34.9091 7.45457 34.9091C6.06063 34.9091 5.39396 34.4848 4.66669 34C3.87881 33.5151 2.96972 32.9091 1.21214 32.9091C0.848503 32.9091 0.606079 33.1515 0.606079 33.5151C0.606079 33.8788 0.848503 34.1212 1.21214 34.1212Z" fill="black"/>
</svg>
