<svg width="40" height="40" viewBox="0 0 40 40" fill="none" xmlns="http://www.w3.org/2000/svg">
<path d="M36.25 18.75H35.5237C36.0033 17.4038 36.249 15.9854 36.25 14.5563C36.2552 12.7017 35.855 10.8684 35.0775 9.18463C34.3001 7.50089 33.164 6.00739 31.7489 4.80865C30.3338 3.6099 28.6739 2.73488 26.8852 2.2448C25.0965 1.75473 23.2224 1.66144 21.3939 1.97148C19.5654 2.28151 17.8268 2.98737 16.2997 4.03967C14.7725 5.09197 13.4938 6.46527 12.5529 8.06348C11.6121 9.6617 11.0319 11.4462 10.8529 13.2921C10.6738 15.138 10.9004 17.0008 11.5166 18.75H6.25V1.875C6.25 1.70924 6.18415 1.55027 6.06694 1.43306C5.94973 1.31585 5.79076 1.25 5.625 1.25H1.875C1.70924 1.25 1.55027 1.31585 1.43306 1.43306C1.31585 1.55027 1.25 1.70924 1.25 1.875V38.125C1.25 38.2908 1.31585 38.4497 1.43306 38.5669C1.55027 38.6842 1.70924 38.75 1.875 38.75H5.625C5.79076 38.75 5.94973 38.6842 6.06694 38.5669C6.18415 38.4497 6.25 38.2908 6.25 38.125V30H8.75C8.89438 29.9998 9.03427 29.9497 9.14591 29.8582C9.25755 29.7666 9.33408 29.6392 9.3625 29.4977L10.5125 23.75H11.9706L14.3836 38.2276C14.4078 38.3734 14.483 38.5059 14.5958 38.6016C14.7085 38.6973 14.8515 38.7498 14.9994 38.75C15.034 38.7502 15.0685 38.7473 15.1026 38.7414C15.266 38.7142 15.4119 38.6232 15.5083 38.4884C15.6046 38.3537 15.6435 38.1861 15.6164 38.0227L15.1125 35H18.4875L18.7522 38.1769C18.7651 38.333 18.8363 38.4786 18.9515 38.5848C19.0667 38.691 19.2177 38.7499 19.3744 38.75C19.3919 38.7501 19.4094 38.7493 19.4269 38.7476C19.5087 38.7408 19.5883 38.718 19.6613 38.6805C19.7342 38.6429 19.7991 38.5913 19.8521 38.5287C19.9051 38.466 19.9452 38.3936 19.9702 38.3154C19.9951 38.2372 20.0044 38.1549 19.9976 38.0731L19.7414 35H23.125V38.125C23.125 38.2908 23.1908 38.4497 23.3081 38.5669C23.4253 38.6842 23.5842 38.75 23.75 38.75C23.9158 38.75 24.0747 38.6842 24.1919 38.5669C24.3092 38.4497 24.375 38.2908 24.375 38.125V35H27.7586L27.5024 38.0731C27.4955 38.1549 27.5048 38.2372 27.5298 38.3154C27.5547 38.3936 27.5949 38.466 27.6479 38.5287C27.7009 38.5913 27.7657 38.6429 27.8387 38.6805C27.9116 38.718 27.9913 38.7408 28.0731 38.7476C28.0905 38.7493 28.1081 38.7501 28.1256 38.75C28.2823 38.7499 28.4332 38.6909 28.5484 38.5847C28.6636 38.4786 28.7347 38.333 28.7476 38.1769L29.0125 35H32.3875L31.8838 38.0224C31.8567 38.1859 31.8956 38.3534 31.992 38.4882C32.0883 38.623 32.2343 38.714 32.3977 38.7412C32.4317 38.7471 32.4661 38.7501 32.5006 38.75C32.6485 38.7498 32.7915 38.6973 32.9042 38.6016C33.017 38.5059 33.0922 38.3734 33.1164 38.2276L35.5294 23.75H36.25C36.913 23.75 37.5489 23.4866 38.0178 23.0178C38.4866 22.5489 38.75 21.913 38.75 21.25C38.75 20.587 38.4866 19.9511 38.0178 19.4822C37.5489 19.0134 36.913 18.75 36.25 18.75ZM30.3896 18.75C29.9834 17.7338 29.7288 16.6634 29.634 15.5731C31.3327 15.477 33.0976 15.3039 34.975 15.0493C34.9242 16.3185 34.6581 17.5699 34.1882 18.75H30.3896ZM28.3313 14.3862C27.9045 14.4017 27.4819 14.4121 27.0634 14.4174C27.0917 10.4162 25.979 6.4898 23.8559 3.09819C26.6981 3.16809 29.4098 4.30523 31.4517 6.28344C29.4777 8.52531 28.3709 11.3994 28.3313 14.3862ZM25.8136 14.4206C25.2533 14.4156 24.6949 14.402 24.1386 14.3799C24.0511 10.1959 20.9136 6.6595 16.4486 5.53863C18.1515 4.19355 20.2024 3.36163 22.3611 3.14031C24.5327 6.06875 25.7872 10.1459 25.8136 14.4206ZM25.7896 15.6706C25.7377 16.7046 25.6126 17.7337 25.4152 18.75H23.0238C23.5726 17.7877 23.9285 16.7276 24.0716 15.6291C24.6425 15.6517 25.2153 15.6654 25.7896 15.6706ZM27.0396 15.6597C27.4858 15.6539 27.9309 15.6494 28.3859 15.633C28.4728 16.6963 28.6963 17.7439 29.051 18.75H26.6865C26.8732 17.729 26.9912 16.6965 27.0396 15.6597ZM34.9638 13.7898C33.0674 14.0508 31.2913 14.2273 29.584 14.3241C29.6362 11.7038 30.6004 9.18357 32.3104 7.19744C33.8759 9.05534 34.8057 11.3655 34.9638 13.7898ZM15.2946 6.57325C19.6258 7.29825 22.7571 10.4894 22.8849 14.317C19.2913 14.0525 15.7146 13.5935 12.1707 12.942C12.5105 10.5416 13.6045 8.31134 15.2946 6.57325ZM12.0438 14.5563C12.0438 14.4331 12.0584 14.3137 12.0625 14.1915C15.6212 14.8442 19.2126 15.3036 22.8209 15.5677C22.6516 16.7135 22.2157 17.8035 21.5482 18.75H12.85C12.3185 17.4156 12.0449 15.9926 12.0438 14.5563ZM5 37.5H2.5V2.5H5V37.5ZM8.23794 28.75H6.25V23.75H9.2375L8.23794 28.75ZM23.125 29.375H19.2726L19.0296 26.4594C20.3407 26.9532 21.7246 27.2265 23.125 27.2681V29.375ZM24.375 27.2462C25.7897 27.1577 27.1793 26.8312 28.4854 26.2804L28.2274 29.375H24.375V27.2462ZM23.525 26.0375C21.0514 26.0387 18.6444 25.2359 16.6667 23.75H30.3675C28.3968 25.2377 25.9942 26.0409 23.525 26.0375ZM14.7297 23.75C15.621 24.6032 16.6309 25.3231 17.7281 25.8875L18.0187 29.375H14.175L13.2375 23.75H14.7297ZM14.9047 33.75L14.3839 30.625H18.1233L18.3837 33.75H14.9047ZM19.6375 33.75L19.377 30.625H23.125V33.75H19.6375ZM24.375 33.75V30.625H28.1232L27.8625 33.75H24.375ZM29.1166 33.75L29.377 30.625H33.1164L32.5956 33.75H29.1166ZM33.325 29.375H29.4812L29.7895 25.6769C29.7909 25.6603 29.7839 25.6456 29.7839 25.6293C30.6961 25.1093 31.5402 24.478 32.2968 23.75H34.2625L33.325 29.375ZM37.1334 22.1332C37.0178 22.2497 36.8801 22.3421 36.7285 22.4051C36.5768 22.4681 36.4142 22.5003 36.25 22.5H6.25V20H36.25C36.4972 19.9998 36.739 20.073 36.9446 20.2103C37.1502 20.3476 37.3105 20.5428 37.405 20.7712C37.4996 20.9997 37.5243 21.251 37.4759 21.4935C37.4275 21.7359 37.3085 21.9586 37.1334 22.1332Z" fill="black"/>
</svg>
