<svg width="40" height="40" viewBox="0 0 40 40" fill="none" xmlns="http://www.w3.org/2000/svg">
<g clip-path="url(#clip0_507_3556)">
<path d="M23.3334 39.5572C21.4999 39.5572 19.9999 38.0573 19.9999 36.2241V29.2657L15.3646 24.6405C14.5938 23.8699 14.1665 22.8384 14.1665 21.7447C14.1665 20.6613 14.6041 19.6094 15.3646 18.8385L21.3125 12.8906H18.2812L15.8019 15.3699C15.2499 15.9219 14.5208 16.2241 13.7396 16.2241C12.1353 16.2241 10.823 14.9115 10.823 13.3072C10.823 12.5259 11.1248 11.7969 11.6769 11.2448L15.0103 7.91138C15.5624 7.35931 16.2917 7.05719 17.073 7.05719H26.4584C27.3333 7.05719 28.1979 7.4115 28.8125 8.0365L31.5103 10.7343C32.1353 11.3593 32.4896 12.2134 32.4896 13.0887V18.7241H36.2396C37.8436 18.7241 39.1561 20.0363 39.1561 21.6406C39.1561 23.2449 37.8436 24.5572 36.2396 24.5572H29.9896C28.1561 24.5572 26.6561 23.0573 26.6561 21.2241V19.0677L22.9479 22.7866L25.6875 25.5261C26.3125 26.1511 26.6665 26.9949 26.6665 27.8802V36.2137C26.6665 38.0573 25.1666 39.5572 23.3334 39.5572ZM17.604 11.2241H25.3436L16.5417 20.0259C16.0833 20.4843 15.8334 21.1093 15.8334 21.7551C15.8334 22.3907 16.0937 23.0157 16.5417 23.4738L21.6561 28.5886V36.2241C21.6561 37.1405 22.4062 37.8906 23.323 37.8906C24.2394 37.8906 24.9896 37.1405 24.9896 36.2241V27.8906C24.9896 27.4426 24.8126 27.0261 24.5001 26.7136L20.5938 22.7866L28.3334 15.047V21.2241C28.3334 22.1405 29.0832 22.8906 29.9999 22.8906H36.2499C36.9375 22.8906 37.4999 22.3282 37.4999 21.6406C37.4999 20.9531 36.9375 20.3906 36.2499 20.3906H30.8334V13.0887C30.8334 12.6511 30.6561 12.2238 30.3436 11.9113L27.6458 9.21356C27.3333 8.90106 26.9061 8.72406 26.4688 8.72406H17.0834C16.7498 8.72406 16.4373 8.85925 16.1978 9.08844L12.8646 12.4219C12.6251 12.6614 12.4999 12.9739 12.4999 13.3072C12.4999 13.9948 13.0624 14.5572 13.7499 14.5572C14.0832 14.5572 14.3957 14.422 14.6353 14.1928L17.604 11.2241Z" fill="black"/>
<path d="M10.8334 32.8906C9.94781 32.8906 9.10431 32.547 8.47931 31.9113L3.47931 26.9113C2.85431 26.2863 2.5 25.4428 2.5 24.5572C2.5 22.724 3.99994 21.2241 5.83344 21.2241C6.71875 21.2241 7.56256 21.5677 8.18756 22.2031L10.8334 24.8489L12.3959 23.2864L13.573 24.4635L10.8334 27.2031L7.0105 23.3801C6.698 23.0676 6.28113 22.8906 5.83344 22.8906C4.91669 22.8906 4.16656 23.6407 4.16656 24.5572C4.16656 25.0052 4.34387 25.4218 4.65637 25.7343L9.65637 30.7343C10.2917 31.3699 11.3855 31.3699 12.0105 30.7343L15.7605 26.9843L16.9376 28.1613L13.1876 31.9113C12.5626 32.547 11.7188 32.8906 10.8334 32.8906Z" fill="black"/>
<path d="M35 10.3906C32.2397 10.3906 30 8.15094 30 5.39062C30 2.63031 32.2397 0.390625 35 0.390625C37.7603 0.390625 40 2.63031 40 5.39062C40 8.15094 37.7603 10.3906 35 10.3906ZM35 2.05719C33.1668 2.05719 31.6666 3.55743 31.6666 5.39062C31.6666 7.22382 33.1668 8.72406 35 8.72406C36.8332 8.72406 38.3334 7.22382 38.3334 5.39062C38.3334 3.55743 36.8332 2.05719 35 2.05719Z" fill="black"/>
<path d="M0 12.8906H7.5V14.5572H0V12.8906Z" fill="black"/>
<path d="M2.5 7.05719H10.8334V8.72406H2.5V7.05719Z" fill="black"/>
</g>
<defs>
<clipPath id="clip0_507_3556">
<rect width="40" height="40" fill="white"/>
</clipPath>
</defs>
</svg>
