<svg width="40" height="40" viewBox="0 0 40 40" fill="none" xmlns="http://www.w3.org/2000/svg">
<path d="M36.7212 21.7358C36.445 21.7358 36.1819 21.7922 35.9418 21.8925V21.2195C35.9418 20.0879 35.0207 19.1669 33.8891 19.1669C33.6029 19.1669 33.3305 19.2266 33.0826 19.333C33.0617 18.2579 32.1841 17.3889 31.1047 17.3889H30.9155C29.9753 17.3889 29.1891 18.0492 28.9873 18.9296C28.7327 18.8142 28.4522 18.7463 28.1549 18.7463C27.0361 18.7463 26.1255 19.6564 26.1255 20.7751V29.6002L24.6271 27.8229C24.0393 27.1259 23.0639 26.9324 22.2583 27.3535C21.7645 27.6093 21.405 28.0652 21.2713 28.6047C21.1377 29.1449 21.2433 29.7162 21.5606 30.1727L27.315 38.4564C27.4316 38.6249 27.6239 38.725 27.8283 38.725H36.7212C36.9714 38.725 37.1972 38.576 37.2955 38.3459C37.3578 38.2013 37.4182 38.0573 37.4762 37.9126C38.3215 35.8063 38.75 33.5107 38.75 31.0901V23.7646C38.75 22.6459 37.8399 21.7358 36.7212 21.7358ZM37.5 31.0901C37.5 33.3508 37.102 35.4895 36.3165 37.4463C36.3128 37.4561 36.3092 37.4652 36.3049 37.475H28.1549L22.5873 29.4598C22.4731 29.2957 22.4371 29.0991 22.4847 28.905C22.5329 28.7115 22.6568 28.5547 22.8345 28.4625C23.1152 28.316 23.468 28.3862 23.6712 28.6285L26.2726 31.7145C26.4416 31.9153 26.7206 31.9885 26.9647 31.8988C27.2113 31.8085 27.3755 31.5741 27.3755 31.3116V20.7751C27.3755 20.3455 27.7252 19.9963 28.1549 19.9963C28.5846 19.9963 28.9337 20.3455 28.9337 20.7751V22.3608V27.97C28.9337 28.3154 29.2132 28.595 29.5587 28.595C29.9042 28.595 30.1837 28.3154 30.1837 27.97V22.3608V20.7751V19.3713C30.1837 18.9673 30.5121 18.6389 30.9155 18.6389H31.1047C31.5082 18.6389 31.8365 18.9673 31.8365 19.3713V21.2195V26.535V28.0566C31.8365 28.4021 32.1161 28.6816 32.4615 28.6816C32.807 28.6816 33.0865 28.4021 33.0865 28.0566V26.535V21.2195C33.0865 20.777 33.4466 20.4169 33.8891 20.4169C34.3316 20.4169 34.6918 20.777 34.6918 21.2195V22.3608V23.7646V27.7112V28.0566C34.6918 28.4021 34.9713 28.6816 35.3168 28.6816C35.6622 28.6816 35.9418 28.4021 35.9418 28.0566V27.7112V23.7646C35.9418 23.335 36.2915 22.9858 36.7212 22.9858C37.1509 22.9858 37.5 23.335 37.5 23.7646V31.0901Z" fill="black"/>
<path d="M17.7429 27.3541C16.9336 26.9324 15.9601 27.1265 15.3729 27.8229L13.8745 29.6002V20.7751C13.8745 19.6564 12.9639 18.7463 11.8451 18.7463C11.5478 18.7463 11.2673 18.8142 11.0126 18.9296C10.8109 18.0492 10.0247 17.3889 9.08447 17.3889H8.89526C7.81586 17.3889 6.93832 18.2579 6.91734 19.333C6.66946 19.2266 6.39709 19.1669 6.11084 19.1669C4.97925 19.1669 4.05823 20.0879 4.05823 21.2195V21.8925C3.81805 21.7922 3.55499 21.7358 3.27881 21.7358C2.16003 21.7358 1.25 22.6459 1.25 23.7646V31.0901C1.25 33.5107 1.67847 35.8063 2.5238 37.9138C2.58179 38.0573 2.64221 38.2013 2.70447 38.3459C2.80273 38.576 3.02856 38.725 3.27881 38.725H12.1716C12.3761 38.725 12.5684 38.6249 12.6849 38.4564L18.4393 30.1727C18.7567 29.7162 18.8623 29.1449 18.7286 28.6047C18.595 28.0652 18.2355 27.6093 17.7429 27.3541ZM17.4127 29.4598L11.8451 37.475H3.69507C3.69141 37.4658 3.68713 37.4567 3.68347 37.4475C2.89795 35.4895 2.5 33.3508 2.5 31.0901V23.7646C2.5 23.335 2.84912 22.9858 3.27881 22.9858C3.7085 22.9858 4.05823 23.335 4.05823 23.7646V27.7112V28.0566C4.05823 28.4021 4.33777 28.6816 4.68323 28.6816C5.02869 28.6816 5.30823 28.4021 5.30823 28.0566V27.7112V23.7646V22.3608V21.2195C5.30823 20.777 5.66833 20.4169 6.11084 20.4169C6.55334 20.4169 6.91345 20.777 6.91345 21.2195V26.535V28.0566C6.91345 28.4021 7.19299 28.6816 7.53845 28.6816C7.88391 28.6816 8.16345 28.4021 8.16345 28.0566V26.535V21.2195V19.3713C8.16345 18.9673 8.49182 18.6389 8.89526 18.6389H9.08447C9.48792 18.6389 9.81628 18.9673 9.81628 19.3713V20.7751V22.3608V27.97C9.81628 28.3154 10.0958 28.595 10.4413 28.595C10.7867 28.595 11.0663 28.3154 11.0663 27.97V22.3608V20.7751C11.0663 20.3455 11.4154 19.9963 11.8451 19.9963C12.2748 19.9963 12.6245 20.3455 12.6245 20.7751V31.3116C12.6245 31.5741 12.7887 31.8085 13.0353 31.8988C13.2794 31.9891 13.559 31.9153 13.7274 31.7145L16.3287 28.6285C16.5332 28.3862 16.8848 28.3173 17.1667 28.4631C17.3431 28.5547 17.467 28.7115 17.5153 28.905C17.5629 29.0991 17.5269 29.2957 17.4127 29.4598Z" fill="black"/>
<path d="M25.7828 17.467C27.0216 16.4541 27.9997 15.1143 28.5732 13.5505C28.5744 13.5479 28.5753 13.5453 28.5764 13.5426C28.5791 13.5353 28.5825 13.5284 28.5852 13.5211C28.9471 12.5256 29.1302 11.4783 29.1302 10.4071C29.1302 5.88692 25.8261 2.13345 21.5082 1.41056C21.4745 1.40278 21.4421 1.39725 21.4075 1.39515C20.9471 1.32336 20.479 1.27502 19.9988 1.27502C18.5863 1.27502 17.2342 1.59138 15.9778 2.2102C15.9739 2.21172 15.9703 2.21344 15.9665 2.21504C15.954 2.22122 15.9409 2.22519 15.9283 2.23145C12.8082 3.78845 10.8698 6.92139 10.8698 10.4071C10.8698 10.9045 10.91 11.402 10.9888 11.8854C10.9907 11.8971 10.9939 11.9083 10.9958 11.92C10.9959 11.9207 10.9961 11.9214 10.9962 11.9221C11.3168 13.8391 12.2221 15.5722 13.6176 16.9354C15.3339 18.6139 17.6001 19.5386 19.9988 19.5386C22.1409 19.5386 24.1637 18.7811 25.7596 17.4846C25.7669 17.4781 25.7758 17.4739 25.7828 17.467ZM25.1322 16.3765C23.3641 16.2598 21.6949 15.7949 20.1703 14.9841C19.1765 14.4552 18.2687 13.7831 17.4534 12.9964C18.1879 12.3027 18.9961 11.6901 19.8674 11.1677C20.7631 11.8675 21.7363 12.4466 22.7631 12.8845C23.3458 13.1341 23.9464 13.3235 24.5544 13.4842C24.631 13.5218 24.7152 13.546 24.8059 13.5492C24.8064 13.5492 24.8067 13.5492 24.8071 13.5492C25.5447 13.7283 26.2978 13.8422 27.0642 13.8906C26.5883 14.8534 25.9273 15.6946 25.1322 16.3765ZM13.9325 15.4285C13.0903 14.4154 12.5235 13.2204 12.2711 11.9206C12.9739 10.8572 13.822 9.90978 14.8053 9.11072C15.8943 8.22521 17.1216 7.54898 18.4478 7.07153C18.8823 8.00117 19.2073 8.97499 19.4196 9.97818C18.2279 10.6689 17.1349 11.5087 16.1755 12.4872C16.1614 12.5016 16.149 12.5174 16.1349 12.5318C16.1332 12.5334 16.1308 12.5338 16.1292 12.5354C16.1252 12.5391 16.124 12.5444 16.12 12.5483C15.276 13.4184 14.5456 14.3857 13.9325 15.4285ZM27.8802 10.4071C27.8802 11.1777 27.764 11.9326 27.5468 12.6601C26.8423 12.6336 26.1438 12.5593 25.4591 12.418C25.4715 10.4329 25.1595 8.48152 24.5221 6.61133C24.0984 5.36926 23.5278 4.18369 22.8358 3.06187C25.7821 4.20422 27.8802 7.06188 27.8802 10.4071ZM21.0182 2.59869C22.0168 3.95721 22.8018 5.43919 23.3392 7.01477C23.8956 8.64731 24.1718 10.3486 24.1957 12.0791C23.8785 11.9757 23.5626 11.8672 23.2544 11.7352C22.3717 11.3585 21.5337 10.8635 20.7556 10.2711C20.7503 10.242 20.7468 10.2135 20.741 10.1843C20.7408 10.1834 20.7411 10.1827 20.741 10.1819C20.7404 10.1785 20.7394 10.1751 20.7388 10.1717C20.7384 10.17 20.7382 10.1683 20.7379 10.1666C20.7378 10.1663 20.7376 10.166 20.7375 10.1657C20.4903 8.78662 20.0488 7.45163 19.4135 6.17981C19.3823 6.11755 19.3512 6.0553 19.3225 6.00281C18.764 4.92294 18.0706 3.92422 17.2662 3.01491C18.1363 2.69176 19.0514 2.52502 19.9988 2.52502C20.345 2.52502 20.6836 2.55516 21.0182 2.59869ZM16.0789 3.57105C16.7587 4.29874 17.3551 5.09567 17.8604 5.95684C16.4651 6.47873 15.1702 7.20253 14.0167 8.14087C13.326 8.70193 12.7015 9.33468 12.1333 10.0181C12.2635 7.32086 13.7382 4.91199 16.0789 3.57105ZM14.8451 16.3559C15.3353 15.4735 15.9167 14.6492 16.5846 13.8941C17.4841 14.7617 18.4856 15.5035 19.5831 16.0876C20.8237 16.7471 22.1498 17.1973 23.5402 17.4421C22.4623 17.986 21.2545 18.2886 19.9988 18.2886C18.087 18.2886 16.2782 17.601 14.8451 16.3559Z" fill="black"/>
</svg>
