<svg width="50" height="50" viewBox="0 0 50 50" fill="none" xmlns="http://www.w3.org/2000/svg">
<g clip-path="url(#clip0_410_3336)">
<path d="M41.3743 32.8458H10.9651C4.9459 32.8458 0.0489502 27.9489 0.0489502 21.9297C0.0489502 16.6783 3.74708 12.3261 8.6338 11.2635C8.86216 5.01401 14.0175 0 20.3217 0C25.0527 0 29.0463 2.78205 30.9084 6.72501C36.9747 4.92151 43.0276 9.54585 42.9326 15.8338C46.9206 16.5688 49.9512 20.0715 49.9512 24.2689C49.9512 28.9982 46.1036 32.8458 41.3743 32.8458ZM20.3217 3.11889C15.3084 3.11889 11.3327 7.42472 11.7795 12.4644C11.8559 13.327 11.2136 14.0891 10.3476 14.1566C6.32153 14.4713 3.16784 17.8856 3.16784 21.9297C3.16784 26.2291 6.66568 29.7269 10.9651 29.7269H41.3743C44.3838 29.7269 46.8323 27.2784 46.8323 24.2689C46.8323 21.4364 44.6155 18.8108 41.2179 18.8108C40.2339 18.8108 39.4934 17.908 39.6897 16.941C40.731 11.8147 35.3604 7.76653 30.7353 10.1397C29.8706 10.5834 28.8131 10.1357 28.531 9.20443C27.4453 5.62141 24.0695 3.11889 20.3217 3.11889Z" fill="#54595F"/>
<path d="M30.4569 44.542C29.3109 44.542 28.5415 43.3282 29.0633 42.2848L32.1822 36.047C32.5674 35.2766 33.5042 34.9644 34.2744 35.3495C35.0447 35.7347 35.3569 36.6714 34.9718 37.4417L31.8529 43.6795C31.5797 44.2261 31.0289 44.542 30.4569 44.542Z" fill="#54595F"/>
<path d="M44.492 44.542C43.346 44.542 42.5766 43.3282 43.0983 42.2848L46.2172 36.047C46.6024 35.2766 47.5391 34.9644 48.3094 35.3495C49.0798 35.7347 49.3919 36.6714 49.0069 37.4417L45.888 43.6795C45.6148 44.2261 45.0639 44.542 44.492 44.542Z" fill="#54595F"/>
<path d="M16.422 44.542C15.276 44.542 14.5066 43.3282 15.0283 42.2848L18.1472 36.047C18.5323 35.2766 19.4692 34.9644 20.2394 35.3495C21.0098 35.7347 21.3219 36.6714 20.9369 37.4417L17.818 43.6795C17.5448 44.2261 16.9939 44.542 16.422 44.542Z" fill="#54595F"/>
<path d="M2.38693 44.542C1.24093 44.542 0.471541 43.3282 0.993273 42.2848L4.11216 36.047C4.49725 35.2766 5.43418 34.9644 6.20435 35.3495C6.97472 35.7347 7.2869 36.6714 6.90182 37.4417L3.78293 43.6795C3.50973 44.2261 2.95886 44.542 2.38693 44.542Z" fill="#54595F"/>
<path d="M21.1003 50C19.9543 50 19.1849 48.7863 19.7067 47.7428L22.8255 41.505C23.2107 40.7347 24.1475 40.4225 24.9177 40.8076C25.6881 41.1928 26.0003 42.1295 25.6152 42.8998L22.4963 49.1375C22.2231 49.6841 21.6722 50 21.1003 50Z" fill="#54595F"/>
<path d="M35.1353 50C33.9893 50 33.2199 48.7863 33.7416 47.7428L36.8605 41.505C37.2457 40.7347 38.1824 40.4225 38.9527 40.8076C39.7231 41.1928 40.0353 42.1295 39.6502 42.8998L36.5313 49.1375C36.2581 49.6841 35.7072 50 35.1353 50Z" fill="#54595F"/>
<path d="M7.06527 50C5.91928 50 5.14989 48.7863 5.67162 47.7428L8.79051 41.505C9.17569 40.7347 10.1124 40.4225 10.8827 40.8076C11.6531 41.1928 11.9652 42.1295 11.5802 42.8998L8.46127 49.1375C8.18808 49.6841 7.6372 50 7.06527 50Z" fill="#54595F"/>
</g>
<defs>
<clipPath id="clip0_410_3336">
<rect width="50" height="50" fill="white"/>
</clipPath>
</defs>
</svg>
