<svg width="20" height="20" viewBox="0 0 20 20" fill="none" xmlns="http://www.w3.org/2000/svg">
<g clip-path="url(#clip0_410_3283)">
<path d="M16.5497 13.1383H4.38604C1.97837 13.1383 0.0195923 11.1795 0.0195923 8.77188C0.0195923 6.67131 1.49884 4.93046 3.45353 4.50539C3.54487 2.0056 5.60701 0 8.12871 0C10.0211 0 11.6185 1.11282 12.3634 2.69C14.7899 1.9686 17.211 3.81834 17.1731 6.33353C18.7683 6.62752 19.9805 8.02861 19.9805 9.70755C19.9805 11.5993 18.4414 13.1383 16.5497 13.1383ZM8.12871 1.24756C6.12338 1.24756 4.53309 2.96989 4.71181 4.98574C4.74237 5.33081 4.48545 5.63564 4.13906 5.66266C2.52862 5.7885 1.26715 7.15423 1.26715 8.77188C1.26715 10.4916 2.66628 11.8908 4.38604 11.8908H16.5497C17.7535 11.8908 18.7329 10.9114 18.7329 9.70755C18.7329 8.57457 17.8462 7.52432 16.4872 7.52432C16.0936 7.52432 15.7974 7.16319 15.8759 6.77641C16.2924 4.7259 14.1441 3.10661 12.2941 4.05588C11.9483 4.23335 11.5253 4.05428 11.4124 3.68177C10.9781 2.24856 9.6278 1.24756 8.12871 1.24756Z" fill="#54595F"/>
<path d="M12.1828 17.8168C11.7244 17.8168 11.4167 17.3313 11.6254 16.9139L12.8729 14.4188C13.027 14.1107 13.4017 13.9858 13.7098 14.1398C14.0179 14.2939 14.1428 14.6686 13.9888 14.9767L12.7412 17.4718C12.6319 17.6904 12.4116 17.8168 12.1828 17.8168Z" fill="#54595F"/>
<path d="M17.7968 17.8168C17.3384 17.8168 17.0306 17.3313 17.2393 16.9139L18.4869 14.4188C18.6409 14.1107 19.0156 13.9858 19.3237 14.1398C19.6319 14.2939 19.7568 14.6686 19.6027 14.9767L18.3552 17.4718C18.2459 17.6904 18.0255 17.8168 17.7968 17.8168Z" fill="#54595F"/>
<path d="M6.56881 17.8168C6.11041 17.8168 5.80265 17.3313 6.01135 16.9139L7.2589 14.4188C7.41294 14.1107 7.78771 13.9858 8.09578 14.1398C8.40393 14.2939 8.5288 14.6686 8.37476 14.9767L7.12721 17.4718C7.01793 17.6904 6.79758 17.8168 6.56881 17.8168Z" fill="#54595F"/>
<path d="M0.954796 17.8168C0.496397 17.8168 0.188641 17.3313 0.397334 16.9139L1.64489 14.4188C1.79892 14.1107 2.1737 13.9858 2.48177 14.1398C2.78991 14.2939 2.91478 14.6686 2.76075 14.9767L1.51319 17.4718C1.40392 17.6904 1.18357 17.8168 0.954796 17.8168Z" fill="#54595F"/>
<path d="M8.44015 20C7.98175 20 7.67399 19.5145 7.88269 19.0972L9.13024 16.602C9.28431 16.2939 9.65901 16.169 9.96712 16.3231C10.2753 16.4771 10.4001 16.8518 10.2461 17.1599L8.99855 19.655C8.88927 19.8737 8.66892 20 8.44015 20Z" fill="#54595F"/>
<path d="M14.0541 20C13.5957 20 13.2879 19.5145 13.4966 19.0972L14.7442 16.602C14.8983 16.2939 15.273 16.169 15.5811 16.3231C15.8892 16.4771 16.0141 16.8518 15.8601 17.1599L14.6125 19.655C14.5032 19.8737 14.2829 20 14.0541 20Z" fill="#54595F"/>
<path d="M2.82613 20C2.36774 20 2.05998 19.5145 2.26867 19.0972L3.51623 16.602C3.6703 16.2939 4.045 16.169 4.3531 16.3231C4.66125 16.4771 4.78612 16.8518 4.63209 17.1599L3.38453 19.655C3.27525 19.8737 3.0549 20 2.82613 20Z" fill="#54595F"/>
</g>
<defs>
<clipPath id="clip0_410_3283">
<rect width="20" height="20" fill="white"/>
</clipPath>
</defs>
</svg>
